<svg width="20" height="18" viewBox="0 0 20 18" fill="none" xmlns="http://www.w3.org/2000/svg">
<path d="M2 18C1.45 18 0.979333 17.8043 0.588 17.413C0.196 17.021 0 16.55 0 16V2C0 1.45 0.196 0.979 0.588 0.587C0.979333 0.195667 1.45 0 2 0H16C16.55 0 17.021 0.195667 17.413 0.587C17.8043 0.979 18 1.45 18 2V4H20V6H18V8H20V10H18V12H20V14H18V16C18 16.55 17.8043 17.021 17.413 17.413C17.021 17.8043 16.55 18 16 18H2ZM2 16H16V2H2V16ZM4 14H9V10H4V14ZM10 7H14V4H10V7ZM4 9H9V4H4V9ZM10 14H14V8H10V14Z" fill="#1C1B1F"/>
</svg>
