<?xml version="1.0" encoding="utf-8"?>
<!-- Generator: Adobe Illustrator 24.1.1, SVG Export Plug-In . SVG Version: 6.00 Build 0)  -->
<svg version="1.1" xmlns="http://www.w3.org/2000/svg" xmlns:xlink="http://www.w3.org/1999/xlink" x="0px" y="0px"
	 viewBox="0 0 500 500" style="enable-background:new 0 0 500 500;" xml:space="preserve">
<style type="text/css">
	.st0{fill:#EBEBEB;}
	.st1{fill:#E0E0E0;}
	.st2{opacity:0.4;fill:#E0E0E0;}
	.st3{opacity:0.7;fill:#F5F5F5;}
	.st4{opacity:0.4;fill:#EBEBEB;}
	.st5{fill:#F5F5F5;}
	.st6{fill:#407BFF;}
	.st7{opacity:0.9;fill:#FFFFFF;}
	.st8{opacity:0.7;fill:#FFFFFF;}
	.st9{opacity:0.8;fill:#FFFFFF;}
	.st10{opacity:0.6;fill:#FFFFFF;}
	.st11{fill:#263238;}
	.st12{fill:#FFFFFF;}
	.st13{opacity:0.2;}
	.st14{opacity:0.5;}
	.st15{opacity:0.3;}
	.st16{fill:#CB7A63;}
	.st17{fill:#B74D3C;}
	.st18{opacity:0.2;enable-background:new    ;}
	.st19{opacity:0.3;enable-background:new    ;}
</style>
<g id="Background_Complete">
</g>
<g id="Background_Simple">
</g>
<g id="Shadow">
</g>
<g id="Instruction_Manual">
</g>
<g id="Graphics">
</g>
<g id="Character">
	<g>
		<rect x="379.51" y="363.3" class="st0" width="25.72" height="0.19"/>
		<rect x="306.32" y="365.4" class="st0" width="6.75" height="0.19"/>
		<rect x="363.83" y="356.08" class="st0" width="14.9" height="0.19"/>
		<rect x="96.6" y="357.39" class="st0" width="33.54" height="0.19"/>
		<rect x="137.06" y="357.39" class="st0" width="4.92" height="0.19"/>
		<rect x="157.96" y="360.67" class="st0" width="72.74" height="0.19"/>
		<path class="st0" d="M239.92,316.16H89.97c-2.44,0-4.43-1.99-4.43-4.43V100.96c0-2.44,1.99-4.43,4.43-4.43h149.95
			c2.44,0,4.43,1.99,4.43,4.43v210.77C244.35,314.18,242.36,316.16,239.92,316.16z M89.97,96.72c-2.34,0-4.24,1.9-4.24,4.24v210.77
			c0,2.34,1.9,4.24,4.24,4.24h149.95c2.34,0,4.24-1.9,4.24-4.24V100.96c0-2.34-1.9-4.24-4.24-4.24H89.97z"/>
		<path class="st0" d="M407.88,316.16H257.93c-2.44,0-4.43-1.99-4.43-4.43V100.96c0-2.44,1.99-4.43,4.43-4.43h149.95
			c2.44,0,4.43,1.99,4.43,4.43v210.77C412.31,314.18,410.32,316.16,407.88,316.16z M257.93,96.72c-2.34,0-4.24,1.9-4.24,4.24v210.77
			c0,2.34,1.9,4.24,4.24,4.24h149.95c2.34,0,4.24-1.9,4.24-4.24V100.96c0-2.34-1.9-4.24-4.24-4.24H257.93z"/>
		<rect x="55.87" y="350.8" class="st0" width="388.27" height="0.19"/>
		<g>
			<g>
				<path class="st0" d="M110.89,272.79c-4.26,1.67-7.84,4.71-10.96,8.05c-5.15,5.53-9.42,13.22-7.09,20.41
					c1.1,3.41,4.76,6.58,8.02,5.1c2.52-1.14,3.3-4.34,3.37-7.11c0.07-2.77-0.18-5.77,1.36-8.07c1.94-2.91,6.33-3.48,9.38-1.77
					c3.05,1.71,4.82,5.16,5.3,8.63c0.54,3.96-0.43,8.11-2.69,11.41c-1.95,2.86-4.83,5.14-6.12,8.35c-1.74,4.32-0.21,9.19,1.33,13.58
					c0.1,0.27,0.2,0.56,0.41,0.76c0.21,0.2,0.5,0.28,0.78,0.34c3.07,0.61,6.32-2.2,6.16-5.33c-0.09-1.82-1.13-3.49-1.21-5.3
					c-0.15-3.6,3.28-6.14,5.78-8.74c6.83-7.1,7.86-17.89,7.56-27.74c-0.08-2.74-0.26-5.57-1.48-8.03
					C127.74,271.15,116.52,270.59,110.89,272.79z"/>
				<g>
					<path class="st1" d="M118.68,335.96c-3.23,0.93-5.24,4.78-4.27,8c0.96,3.22,4.61,5.34,7.91,4.7c2.06-0.4,3.92-1.75,4.92-3.6
						c1.32-2.44,1.01-5.73-0.91-7.74C124.41,335.32,118.68,335.96,118.68,335.96z"/>
				</g>
			</g>
			<g>
				<g>
					<path class="st1" d="M103.34,147.64l-5.09-1.63l-5.35,4.86c-0.53-2.89,0.4-5.97,2.73-8.09c2.33-2.12,5.49-2.74,8.31-1.94
						l10.04-9.12l8.04-7.3l10.04-9.12c-0.53-2.89,0.4-5.97,2.73-8.09c2.33-2.12,5.49-2.74,8.31-1.94l-5.35,4.86l1.13,5.23l5.09,1.63
						l5.35-4.86c0.53,2.89-0.4,5.97-2.73,8.09c-2.33,2.12-5.49,2.74-8.31,1.94l-10.04,9.12l-8.04,7.3l-10.04,9.12
						c0.53,2.89-0.4,5.97-2.73,8.09c-2.33,2.12-5.49,2.74-8.31,1.94l5.35-4.86L103.34,147.64z"/>
					<path class="st2" d="M103.34,147.64l-5.09-1.63l-5.35,4.86c-0.53-2.89,0.4-5.97,2.73-8.09c2.33-2.12,5.49-2.74,8.31-1.94
						l10.04-9.12l8.04-7.3l10.04-9.12c-0.53-2.89,0.4-5.97,2.73-8.09c2.33-2.12,5.49-2.74,8.31-1.94l-5.35,4.86l1.13,5.23l5.09,1.63
						l5.35-4.86c0.53,2.89-0.4,5.97-2.73,8.09c-2.33,2.12-5.49,2.74-8.31,1.94l-10.04,9.12l-8.04,7.3l-10.04,9.12
						c0.53,2.89-0.4,5.97-2.73,8.09c-2.33,2.12-5.49,2.74-8.31,1.94l5.35-4.86L103.34,147.64z"/>
				</g>
				<g>
					<g>
						<path class="st1" d="M102.43,117.12l-7.11-8.97l4.93-4.48l8.24,7.94l0.98,2.14c0.3,0.66,0.7,1.26,1.19,1.8l9.89,10.9
							l-4.51,4.09l-9.89-10.9c-0.49-0.54-1.05-0.99-1.68-1.35L102.43,117.12z"/>
						<path class="st3" d="M102.43,117.12l-7.11-8.97l4.93-4.48l8.24,7.94l0.98,2.14c0.3,0.66,0.7,1.26,1.19,1.8l9.89,10.9
							l-4.51,4.09l-9.89-10.9c-0.49-0.54-1.05-0.99-1.68-1.35L102.43,117.12z"/>
					</g>
					<g>
						<path class="st1" d="M95.43,108.29l-0.11-0.14l4.93-4.48l0.13,0.13c0.34,0.68-0.32,2.05-1.6,3.21
							C97.5,108.18,96.07,108.7,95.43,108.29z"/>
					</g>
					<g>
						<path class="st1" d="M119.79,136.25l-2.97-3.27l-0.2,0.18c-0.47,0.43-1.21,0.39-1.64-0.08c-0.43-0.47-0.39-1.21,0.08-1.64
							l6.46-5.86c0.47-0.43,1.21-0.39,1.64,0.08c0.43,0.47,0.39,1.21-0.08,1.64l-0.2,0.18l2.97,3.27c1.08-0.13,2.12,0.21,3.07,1.26
							l17.14,18.88c2.04,2.25,0.85,4.63-1.4,6.67c-2.25,2.04-4.73,3-6.77,0.75l-17.14-18.88
							C119.8,138.38,119.56,137.3,119.79,136.25z"/>
						<path class="st4" d="M119.79,136.25l-2.97-3.27l-0.2,0.18c-0.47,0.43-1.21,0.39-1.64-0.08c-0.43-0.47-0.39-1.21,0.08-1.64
							l6.46-5.86c0.47-0.43,1.21-0.39,1.64,0.08c0.43,0.47,0.39,1.21-0.08,1.64l-0.2,0.18l2.97,3.27c1.08-0.13,2.12,0.21,3.07,1.26
							l17.14,18.88c2.04,2.25,0.85,4.63-1.4,6.67c-2.25,2.04-4.73,3-6.77,0.75l-17.14-18.88
							C119.8,138.38,119.56,137.3,119.79,136.25z"/>
					</g>
				</g>
			</g>
			<g>
				<polygon class="st3" points="363.52,154.04 371.58,157.98 375.26,156.15 362.71,150.01 				"/>
				<g>
					<g>
						<g>
							<path class="st5" d="M368.68,112.06c-2.36,4.87-2.37,10.29-0.47,14.94c1.31,3.2,1.33,6.77-0.19,9.88l-0.61,1.25l14.35,7.02
								l0.61-1.25c1.52-3.1,4.35-5.29,7.67-6.21c4.86-1.35,9.15-4.7,11.54-9.59c4.59-9.37,0.44-20.74-9.27-24.88
								C383.44,99.42,372.91,103.38,368.68,112.06z"/>
							<g>
								<g>
									
										<rect x="373.7" y="134.79" transform="matrix(0.6103 -0.7922 0.7922 0.6103 42.1594 356.3784)" class="st1" width="19.21" height="1.1"/>
								</g>
								<g>
									
										<rect x="364.6" y="130.34" transform="matrix(0.2518 -0.9678 0.9678 0.2518 153.3006 460.0713)" class="st1" width="19.21" height="1.1"/>
								</g>
								<g>
									<polygon class="st1" points="377.3,131.04 381.05,128.41 381.29,132.99 387.13,130.52 386.69,129.5 382.31,131.36 
										382.05,126.36 377.96,129.23 376.73,124.63 375.67,124.91 									"/>
								</g>
							</g>
							<polygon class="st1" points="367.44,138.05 361.84,149.49 376.16,156.59 381.76,145.15 							"/>
						</g>
					</g>
				</g>
			</g>
			<g>
				<path class="st0" d="M374.16,336.98c-2.42-13.55-3.6-27.32-3.52-41.08c0.04-6.95,0.96-19.74,9.89-21.38
					c8.69-1.59,8.33,9.59,8.12,15.32C388.34,298.15,373.84,335.23,374.16,336.98z"/>
				<g>
					<path class="st1" d="M376.28,342.77c2.4,1.96,2.7,5.94,0.72,8.32c-1.98,2.38-5.83,2.85-8.4,1.12c-1.6-1.08-2.68-2.9-2.86-4.83
						c-0.24-2.54,1.22-5.21,3.57-6.22C371.66,340.16,376.28,342.77,376.28,342.77z"/>
				</g>
			</g>
		</g>
		<g>
			<path class="st6" d="M306.82,127.81c-16.57-15.13-38.79-28.71-64.41-28.99c-28.96-0.31-53.79,16.53-69.53,35.35
				c-24.07,28.8-33.72,63.78-33.55,98.08c0.14,27.85,6.98,56.61,27.59,79.44c20.61,22.83,57.11,38.41,92.55,33.6
				c24.17-3.28,45.14-15.42,60.58-30.19c23.17-22.17,39.89-47.68,39.58-76.35c-0.28-25.92-8.17-51.76-22.75-75.09
				C328.83,150.8,318.75,138.7,306.82,127.81z"/>
			<path class="st7" d="M306.82,127.81c-16.57-15.13-38.79-28.71-64.41-28.99c-28.96-0.31-53.79,16.53-69.53,35.35
				c-24.07,28.8-33.72,63.78-33.55,98.08c0.14,27.85,6.98,56.61,27.59,79.44c20.61,22.83,57.11,38.41,92.55,33.6
				c24.17-3.28,45.14-15.42,60.58-30.19c23.17-22.17,39.89-47.68,39.58-76.35c-0.28-25.92-8.17-51.76-22.75-75.09
				C328.83,150.8,318.75,138.7,306.82,127.81z"/>
		</g>
		<ellipse id="_x3C_Path_x3E__359_" class="st5" cx="250" cy="376.65" rx="150.56" ry="8.79"/>
		<g>
			<g>
				<g>
					<g>
						<path class="st6" d="M247.66,127.38l106.15-20.95c2.87-0.57,5.61,1.41,5.91,4.26l18.91,183.65c0.29,2.82-1.95,5.29-4.86,5.33
							l-126.12,1.72L247.66,127.38z"/>
					</g>
					<g>
						<path class="st6" d="M247.29,127.88c0,0,71.87-16.2,103.15-14.32l15.15,177.43c0,0-23.79-6.21-46.59-1.87
							c-23.45,4.46-71.72,12.26-71.72,12.26L247.29,127.88z"/>
						<path class="st8" d="M247.29,127.88c0,0,71.87-16.2,103.15-14.32l15.15,177.43c0,0-23.79-6.21-46.59-1.87
							c-23.45,4.46-71.72,12.26-71.72,12.26L247.29,127.88z"/>
					</g>
					<g>
						<path class="st6" d="M256.77,124.01c0,0,39.09-16.19,63.83-17.6c24.92-1.42,24.92-1.42,24.92-1.42l14.17,179.85
							c0,0-23.21-9.43-47.01-3.59c-23.81,5.84-54.41,16-64.86,19.76l0-173.7L256.77,124.01z"/>
						<path class="st9" d="M256.91,124.01c0,0,39.09-16.19,63.83-17.6c24.92-1.42,24.92-1.42,24.92-1.42l14.17,179.85
							c0,0-23.21-9.43-47.01-3.59c-23.81,5.84-54.41,16-64.86,19.76l0-173.7L256.91,124.01z"/>
					</g>
					<g>
						<path class="st6" d="M247.82,127.38l-103.8-20.95c-2.81-0.57-5.49,1.41-5.78,4.26l-18.49,183.65
							c-0.28,2.82,1.91,5.29,4.75,5.33l123.32,1.72L247.82,127.38z"/>
					</g>
					<g>
						<path class="st6" d="M247.82,127.38c0,0-66.97-24.49-97.97-26.33l-15.77,189.12c0,0,24.21-6.44,46.75-1.64
							c22.53,4.8,67,12.86,67,12.86L247.82,127.38z"/>
						<path class="st10" d="M247.82,127.38c0,0-66.97-24.49-97.97-26.33l-15.77,189.12c0,0,24.21-6.44,46.75-1.64
							c22.53,4.8,67,12.86,67,12.86L247.82,127.38z"/>
					</g>
					<g>
						<path class="st6" d="M240.25,123.29c0,0-37.1-19.54-60.47-23.03c-23.44-3.51-23.44-3.51-23.44-3.51l-13.27,177.43
							c0,0,21.79-7.11,44.2,1.02c22.51,8.17,51.56,21.36,61.52,26.18l-0.01-174L240.25,123.29z"/>
						<path class="st8" d="M240.25,123.29c0,0-37.1-19.54-60.47-23.03c-23.44-3.51-23.44-3.51-23.44-3.51l-13.27,177.43
							c0,0,21.79-7.11,44.2,1.02c22.51,8.17,51.56,21.36,61.52,26.18l-0.01-174L240.25,123.29z"/>
					</g>
					<g>
						<g>
							<g>
								<g>
									<path class="st6" d="M265.78,179.67l0-0.55c0.01-5.26-0.14-10.61-0.28-15.79c-0.12-4.6-0.25-9.36-0.27-14.04l0-0.27
										l0.25-0.09c9.9-3.69,20.14-6.83,30.43-9.34l0.46-0.11l0.02,0.47c0.28,5.66,0.46,11.42,0.64,16.99
										c0.13,4.14,0.26,8.42,0.44,12.63l0.01,0.32l-0.31,0.08c-11.33,2.85-21.97,6.42-30.88,9.53L265.78,179.67z M266.01,149.56
										c0.02,4.59,0.15,9.25,0.27,13.75c0.13,5,0.27,10.17,0.28,15.26c8.74-3.05,19.09-6.5,30.12-9.3
										c-0.17-4.11-0.3-8.29-0.43-12.33c-0.17-5.41-0.35-11-0.61-16.5C285.62,142.91,275.65,145.98,266.01,149.56z"/>
								</g>
								<g>
									<path class="st11" d="M283.39,155.72c-0.98,0.32-1.69,1.3-1.66,2.2c0.03,0.88,0.04,1.31,0.07,2.19c0,0,1.07-0.55,1.43-1.18
										c0.16-0.27,0.2-0.53,0.21-0.74c0.01-0.23,0.22-0.47,0.47-0.5c0.7-0.09,1.06-0.14,1.8-0.24c0.43-0.06,0.75,0.18,0.76,0.57
										c0.01,0.51,0.01,0.77,0.02,1.28c0.01,0.48-0.45,0.99-0.98,1.11c-1.62,0.35-2.35,0.51-3.77,0.83l0,0
										c0.03,1.06,0.67,1.84,1.71,1.92c1.97,0.15,3.1,0.2,5.35,0.34c3.27-0.38,5.05-0.59,8.02-0.69c-0.07-2.17-0.1-3.23-0.16-5.34
										c-1.71-3.06-2.62-4.44-4.47-7.25c-0.46-0.83-1.3-1.36-2.38-1.47l0,0l0,0c-0.76-0.75-1.83-1.17-3.05-1.21
										c-0.04,0-0.07,0-0.11,0l0,0c-1.01-0.36-2.17-0.42-3.31-0.17l0,0c-0.22,0.05-0.42,0.25-0.49,0.48
										c-0.13,0.44-0.19,1.12,0.55,1.39c0.73,0.26,2.12,1.84,3.04,2.9c0.56,0.65,1.02,1.38,1.34,2.19l0,0
										C285.94,154.9,285.03,155.19,283.39,155.72z"/>
									<g>
										<g id="XMLID_530_">
											<path id="XMLID_531_" class="st11" d="M278.65,156.2c-0.16,0.05-0.31,0-0.36-0.13c-0.28-0.78-0.68-1.51-1.18-2.17
												c-0.1-0.13-0.04-0.36,0.14-0.5c0.18-0.14,0.4-0.15,0.5-0.01c0.53,0.71,0.94,1.48,1.24,2.31
												c0.06,0.16-0.05,0.37-0.24,0.47C278.71,156.18,278.68,156.19,278.65,156.2z"/>
										</g>
										<g id="XMLID_475_">
											<g id="XMLID_480_">
												<g id="XMLID_505_">
													<g id="XMLID_511_">
														<g id="XMLID_518_">
															<path id="XMLID_519_" class="st12" d="M278.71,160.93c-0.07,0.61-0.44,1.27-1.06,1.76c-1,0.79-2.3,0.85-2.86,0.12
																c-0.07-0.09-0.12-0.18-0.16-0.28c-0.3-0.74,0.11-1.8,1.02-2.5c0.6-0.46,1.28-0.67,1.85-0.61
																c0.41,0.04,0.76,0.21,0.98,0.52c0.04,0.05,0.07,0.1,0.1,0.16C278.69,160.34,278.74,160.63,278.71,160.93z"/>
														</g>
														<g id="XMLID_516_">
															<path id="XMLID_517_" class="st11" d="M278.71,160.93c-0.06,0.61-0.44,1.27-1.06,1.76c-1,0.79-2.3,0.85-2.86,0.12
																c-0.07-0.09-0.12-0.18-0.16-0.28c0.07-0.62,0.46-1.29,1.1-1.79c1.03-0.8,2.29-0.83,2.82-0.09
																C278.62,160.74,278.67,160.83,278.71,160.93z"/>
														</g>
														<g id="XMLID_514_">
															<path id="XMLID_515_" class="st12" d="M282.84,160.51c-0.07,0.61-0.42,1.26-0.97,1.71
																c-0.88,0.72-2.05,0.71-2.57-0.04c-0.06-0.09-0.11-0.19-0.15-0.29c-0.22-0.58-0.03-1.33,0.45-1.95
																c0.14-0.18,0.31-0.35,0.5-0.5c0.23-0.18,0.47-0.31,0.7-0.4c0.76-0.29,1.47-0.13,1.83,0.46
																C282.82,159.79,282.88,160.14,282.84,160.51z"/>
														</g>
														<g id="XMLID_512_">
															<path id="XMLID_513_" class="st11" d="M282.84,160.51c-0.07,0.61-0.42,1.26-0.97,1.71
																c-0.88,0.72-2.05,0.71-2.57-0.04c-0.06-0.09-0.11-0.19-0.15-0.29c0.06-0.61,0.44-1.27,1.03-1.74
																c0.95-0.75,2.05-0.71,2.52,0.06C282.76,160.31,282.81,160.41,282.84,160.51z"/>
														</g>
													</g>
													<g id="XMLID_509_">
														<path id="XMLID_510_" class="st12" d="M281.26,157.12c-0.07,0.65-0.48,1.34-1.15,1.81c-0.99,0.69-2.21,0.63-2.68-0.16
															c-0.03-0.06-0.06-0.12-0.09-0.18c-0.31-0.79,0.17-1.9,1.13-2.56c1.04-0.71,2.21-0.61,2.64,0.2
															C281.25,156.49,281.3,156.8,281.26,157.12z"/>
													</g>
													<g id="XMLID_506_">
														<g id="XMLID_507_">
															<path id="XMLID_508_" class="st11" d="M280.11,158.92c-0.99,0.69-2.21,0.63-2.68-0.16
																c-0.03-0.06-0.06-0.12-0.09-0.18c0.07-0.66,0.52-1.37,1.21-1.85c1.03-0.71,2.2-0.61,2.62,0.2
																c0.03,0.06,0.06,0.12,0.08,0.18C281.19,157.77,280.78,158.46,280.11,158.92z"/>
														</g>
													</g>
												</g>
												<g id="XMLID_500_">
													<g id="XMLID_503_">
														<path id="XMLID_504_" class="st6" d="M277.85,155.85c0,0.03,0,0.06-0.01,0.09c-0.14,1.17-2.27,2.63-4.89,3.36
															c-1.63,0.45-3.01,0.06-3.84-0.33c-0.54-0.26-0.84-0.51-0.84-0.51s2.17-2.85,4.83-3.55c0.38-0.1,0.75-0.18,1.1-0.23
															c0.38-0.06,0.74-0.09,1.08-0.1C276.84,154.55,277.87,155.02,277.85,155.85z"/>
													</g>
													<g id="XMLID_501_" class="st13">
														<path id="XMLID_502_" d="M272.96,159.31c-1.63,0.45-3.01,0.06-3.84-0.33c0.74-0.82,2.48-2.55,4.48-3.09
															c1.87-0.5,3.48-0.43,4.24,0.06C277.7,157.12,275.57,158.58,272.96,159.31z"/>
													</g>
												</g>
												<g id="XMLID_495_">
													<g id="XMLID_498_">
														<path id="XMLID_499_" class="st6" d="M286.04,147.5c0,0-0.03,0.47-0.19,1.16c-0.25,1.11-0.85,2.78-2.07,4.08
															c-1.85,1.98-3.79,3.02-4.73,2.61c-0.07-0.03-0.13-0.07-0.18-0.11c-0.57-0.47-0.29-1.7,0.61-3.14
															c0.23-0.37,0.5-0.75,0.8-1.13c0.22-0.28,0.46-0.55,0.71-0.83C282.99,147.99,286.04,147.5,286.04,147.5z"/>
													</g>
													<g id="XMLID_496_" class="st13">
														<path id="XMLID_497_" d="M285.85,148.66c-0.25,1.11-0.85,2.78-2.07,4.08c-1.85,1.98-3.79,3.02-4.73,2.61
															c0.05-1.01,0.95-2.63,2.39-4.18C282.87,149.64,284.8,148.93,285.85,148.66z"/>
													</g>
												</g>
												<g id="XMLID_490_">
													<g id="XMLID_493_">
														<path id="XMLID_494_" class="st6" d="M277.19,153.66c-0.3,0.8-1.83,1.36-3.4,1.26c-1.57-0.11-2.27-1.72-2.27-1.72
															s1.82-1.42,3.39-1.27C276.48,152.08,277.5,152.86,277.19,153.66z"/>
													</g>
													<g id="XMLID_491_">
														<path id="XMLID_492_" class="st6" d="M277.57,153.44c0.72,0.19,1.97-0.89,2.82-2.48c0.85-1.59,0.3-3.38,0.3-3.38
															s-1.99,0.95-2.86,2.59C276.97,151.8,276.85,153.24,277.57,153.44z"/>
													</g>
												</g>
												<g id="XMLID_481_">
													<g id="XMLID_488_">
														<path id="XMLID_489_" class="st6" d="M287.82,164.7c0,0-0.41,0.51-1.08,1.21c-1.11,1.15-3.02,2.79-4.68,3.25
															c-2.57,0.7-5.39,0.41-5.58-1.06c-0.01-0.05-0.01-0.1-0.01-0.15c-0.02-1.59,2.81-3.79,5.6-4.57
															C284.86,162.59,287.82,164.7,287.82,164.7z"/>
													</g>
													<g id="XMLID_484_" class="st13">
														<path id="XMLID_485_" d="M286.74,165.91c-1.11,1.15-3.02,2.79-4.68,3.25c-2.57,0.7-5.39,0.41-5.58-1.06
															c0.96-1.31,3.06-2.68,5.12-3.27C283.72,164.22,285.81,165.31,286.74,165.91z"/>
													</g>
													<g id="XMLID_486_">
														<path id="XMLID_487_" class="st6" d="M275.35,168.06c-0.04,0.06-0.09,0.12-0.14,0.18c-1.21,1.42-4.16,1.64-6.54,0.43
															c-1.55-0.78-2.09-2.51-2.31-3.67c-0.13-0.7-0.14-1.2-0.14-1.2s3.84-1.71,6.44-0.59
															C275.24,164.33,276.46,166.49,275.35,168.06z"/>
													</g>
													<g id="XMLID_482_" class="st13">
														<path id="XMLID_483_" d="M275.21,168.24c-1.21,1.42-4.16,1.64-6.54,0.43c-1.55-0.78-2.09-2.51-2.31-3.67
															c1.17-0.41,3.82-1.15,5.74-0.31C273.99,165.52,275.16,166.9,275.21,168.24z"/>
													</g>
												</g>
											</g>
											<g id="XMLID_476_">
												<g id="XMLID_477_">
													<g id="XMLID_478_">
														<path id="XMLID_479_" class="st11" d="M266.19,176.06c-0.19,0.06-0.34-0.07-0.34-0.29c0-0.21,0.15-0.43,0.33-0.49
															c6.3-1.93,12.52-9.84,12.63-15.88c0-0.18,0.17-0.37,0.36-0.42c0.2-0.05,0.35,0.06,0.35,0.23
															C279.18,166.61,273.13,173.39,266.19,176.06z"/>
													</g>
												</g>
											</g>
										</g>
									</g>
								</g>
							</g>
							<g>
								<g>
									<path class="st6" d="M266.13,213.43l0-0.53c-0.05-7.85-0.16-15.83-0.26-23.55l-0.08-6.05l0.26-0.09
										c12.11-4.2,21.72-7.13,31.18-9.47l0.46-0.11l0.03,0.47c0.57,10.41,0.96,20.99,1.26,29.96l0.01,0.32l-0.31,0.07
										c-10.83,2.49-21.31,5.38-32.04,8.83L266.13,213.43z M266.58,183.85l0.07,5.49c0.1,7.55,0.2,15.35,0.25,23.03
										c10.47-3.35,20.71-6.17,31.29-8.61c-0.3-8.77-0.67-19.03-1.22-29.16C287.75,176.9,278.34,179.77,266.58,183.85z"/>
								</g>
								<path class="st11" d="M269.74,212.16c2.38-2.69,3.69-4.14,6.43-7.18c4.48-1.31,6.58-1.72,10.76-2.73
									c1.61-2.07,2.46-3.26,4.1-5.27c0.18-0.22,0.43-0.39,0.69-0.46l0,0c0.81-0.23,1.31,0.48,0.89,1.26
									c-1.41,2.55-2.15,4.17-3.58,6.63c-3.39,1.24-4.8,1.65-8.28,3.01c-0.89,0.68-1.33,1.03-2.22,1.71
									C274.86,210.34,272.97,211.04,269.74,212.16z"/>
								<g>
									<g id="XMLID_457_">
										<g id="XMLID_464_">
											<g id="XMLID_472_">
												<g id="XMLID_473_">
													<g id="XMLID_474_">
														<path class="st6" d="M288.4,186.89c0.41,5.38,0.55,8.11,0.74,14.71c-5.07,1.41-7.35,1.85-12.64,3.52
															c-0.14-6.36,0.07-9.48-0.04-14.83C281.56,188.56,283.39,188.2,288.4,186.89z"/>
													</g>
												</g>
											</g>
											<g id="XMLID_471_">
												<path class="st11" d="M278.41,196.05c0,0.4,0.08,0.78,0.2,1.12c-0.83,0.26-1.25,0.39-2.08,0.66c0-0.98,0-1.46-0.01-2.39
													c0.83-0.27,1.25-0.41,2.08-0.67C278.48,195.19,278.41,195.62,278.41,196.05z"/>
											</g>
											<g id="XMLID_470_">
												<path class="st11" d="M288.75,192.03c0.06,0.93,0.08,1.4,0.13,2.36c-0.79,0.22-1.18,0.32-1.95,0.53
													c0.1-0.4,0.14-0.81,0.12-1.21c-0.02-0.43-0.12-0.81-0.27-1.15C287.56,192.35,287.96,192.24,288.75,192.03z"/>
											</g>
											<path class="st13" d="M287.06,193.7c0.02,0.4-0.02,0.81-0.12,1.21c-0.44,1.82-1.84,3.51-3.88,4.03
												c-2.04,0.53-3.88-0.25-4.45-1.77c-0.13-0.34-0.2-0.71-0.2-1.12c0-0.43,0.07-0.86,0.2-1.29c0.56-1.78,2.26-3.45,4.12-3.95
												c1.86-0.5,3.41,0.29,4.06,1.73C286.94,192.89,287.04,193.27,287.06,193.7z"/>
											<g id="XMLID_465_">
												<g id="XMLID_466_">
													<g id="XMLID_467_">
														<g id="XMLID_468_">
															<g id="XMLID_469_">
																<path class="st12" d="M280.77,193.65c0.07-0.09,0.14-0.16,0.22-0.24c0.02,0.03,0.04,0.05,0.07,0.07
																	c0.01,0.01,0.02,0.01,0.03,0.02c0.63,0.36,1.12,0.88,1.45,1.54c0.04,0.08,0.06,0.12,0.1,0.19
																	c0.35,0.71,0.85,1.32,1.45,1.82c-0.71,0.28-1.75,0.17-2.58-0.35C280.3,195.95,279.98,194.6,280.77,193.65z"/>
																<path class="st12" d="M284.92,196.43c-0.07,0.09-0.14,0.17-0.22,0.24c-0.01-0.06-0.04-0.11-0.09-0.15
																	c-0.58-0.44-0.99-1.03-1.31-1.69c-0.04-0.08-0.06-0.12-0.1-0.19c-0.34-0.69-0.83-1.25-1.48-1.65
																	c0.79-0.31,1.73-0.21,2.47,0.33C285.28,194.1,285.64,195.48,284.92,196.43z"/>
															</g>
														</g>
													</g>
												</g>
											</g>
										</g>
										<g id="XMLID_458_">
											<g id="XMLID_459_">
												<g id="XMLID_460_">
													<g id="XMLID_461_">
														<g id="XMLID_462_">
															<path id="XMLID_463_" class="st6" d="M288.31,186.91c-0.74-1.56-1.12-2.33-1.85-3.91c-3.61,0.96-4.86,1.22-8.5,2.46
																c-0.59,1.94-0.89,2.89-1.51,4.83c0,0,0,0,0,0.01c-0.02,0.05-0.03,0.08-0.04,0.13c5.11-1.73,6.95-2.09,11.95-3.4
																C288.34,186.98,288.33,186.96,288.31,186.91z"/>
														</g>
													</g>
												</g>
											</g>
										</g>
									</g>
									<g id="XMLID_455_">
										<path id="XMLID_456_" class="st11" d="M287.67,182.68c-4.68,1.24-6.25,1.57-10.92,3.2c-0.01-0.5-0.02-0.74-0.02-1.24
											c4.65-1.63,6.17-1.96,10.85-3.21C287.62,181.93,287.63,182.19,287.67,182.68z"/>
									</g>
								</g>
							</g>
							<g>
								<path class="st6" d="M302.19,169.04l-0.02-0.46c-0.12-2.47-0.24-4.93-0.36-7.4c-0.35-7.29-0.72-14.82-1.16-22.23l-0.02-0.33
									l0.32-0.08c10.13-2.42,20.15-3.76,29.79-4l0.37-0.01l0.02,0.37c0.48,8.22,1.15,16.56,1.8,24.62l0.47,5.82l-0.41,0.01
									c-11.1,0.26-21.3,1.46-30.34,3.58L302.19,169.04z M301.44,139.22c0.43,7.31,0.79,14.73,1.14,21.91
									c0.11,2.31,0.22,4.62,0.34,6.93c8.98-2.07,18.68-3.21,29.63-3.48l-0.4-5c-0.64-7.94-1.3-16.15-1.78-24.26
									C321.01,135.59,311.27,136.9,301.44,139.22z"/>
							</g>
							<g id="XMLID_412_">
								<g>
									<g id="XMLID_450_">
										<g id="XMLID_451_">
											<g id="XMLID_452_">
												<g id="XMLID_453_">
													<path id="XMLID_454_" class="st6" d="M313.08,158.97c-0.75,1.27-1.89,2.14-2.89,2.24c-0.32,0.03-0.62-0.01-0.89-0.14
														c-1.1-0.55-1.19-2.39-0.22-4.07c0.47-0.8,1.09-1.42,1.73-1.79c0.7-0.4,1.44-0.5,2.02-0.21
														C313.95,155.55,314.06,157.29,313.08,158.97z"/>
												</g>
											</g>
										</g>
									</g>
									<g id="XMLID_446_" class="st13">
										<g id="XMLID_447_">
											<g id="XMLID_448_">
												<g id="XMLID_449_">
													<path d="M313.08,158.98c-0.74,1.27-1.9,2.14-2.89,2.24c-0.32,0.03-0.63-0.01-0.89-0.14c-0.12-0.06-0.23-0.13-0.32-0.22
														c-0.01-0.01-0.04-0.03-0.05-0.05c-0.04-0.05-0.09-0.09-0.13-0.15c-0.01-0.01-0.01-0.01-0.01-0.01
														c-0.08-0.1-0.15-0.22-0.2-0.34c0,0,0,0,0-0.01c-0.02-0.06-0.05-0.11-0.07-0.17c-0.02-0.06-0.04-0.12-0.05-0.18
														c-0.02-0.05-0.03-0.11-0.03-0.17c-0.01-0.08-0.03-0.16-0.03-0.25c-0.03-0.38,0.01-0.8,0.13-1.23
														c0.08-0.32,0.21-0.65,0.36-0.97c0.05-0.11,0.11-0.22,0.18-0.33c0.46-0.8,1.09-1.42,1.73-1.79
														c0.7-0.4,1.45-0.5,2.02-0.22c0.12,0.06,0.23,0.13,0.32,0.21c0.19,0.16,0.33,0.36,0.43,0.6
														C313.92,156.62,313.76,157.82,313.08,158.98z"/>
												</g>
											</g>
										</g>
									</g>
									<g id="XMLID_443_">
										<g id="XMLID_444_">
											<g id="XMLID_445_">
												<path class="st6" d="M312.61,157.06c0,0.68-0.2,1.5-0.66,2.29c-0.47,0.81-1.1,1.47-1.76,1.87
													c-0.32,0.03-0.63-0.01-0.89-0.14c-0.12-0.06-0.23-0.13-0.32-0.22c-0.01-0.01-0.04-0.03-0.05-0.05
													c-0.04-0.05-0.09-0.09-0.13-0.15c-0.01-0.01-0.01-0.01-0.01-0.01c-0.08-0.1-0.15-0.22-0.2-0.34c0,0,0,0,0-0.01
													c-0.02-0.06-0.05-0.11-0.07-0.17c-0.02-0.06-0.04-0.12-0.05-0.18c-0.02-0.05-0.03-0.11-0.03-0.17
													c-0.01-0.08-0.03-0.16-0.03-0.25c-0.03-0.38,0.02-0.8,0.13-1.23c0.08-0.31,0.21-0.65,0.36-0.97
													c0.05-0.11,0.11-0.22,0.18-0.33c0.46-0.8,1.08-1.42,1.73-1.79c0.32-0.04,0.62,0.01,0.89,0.14
													c0.34,0.17,0.59,0.47,0.74,0.83C312.54,156.44,312.6,156.73,312.61,157.06z"/>
											</g>
										</g>
									</g>
									<g id="XMLID_440_">
										<g id="XMLID_441_">
											<g id="XMLID_442_">
												<path class="st11" d="M313.58,155.81c-0.29,0.44-0.62,0.86-0.98,1.24c-0.35,0.37-0.74,0.73-1.16,1.05
													c-0.1,0.08-0.14,0.11-0.24,0.19c-0.82,0.64-1.5,1.44-2.02,2.36c-0.05,0.09-0.13,0.15-0.21,0.19
													c-0.01-0.01-0.04-0.03-0.05-0.05c-0.04-0.05-0.09-0.09-0.13-0.15c-0.01-0.01-0.01-0.01-0.01-0.01
													c-0.08-0.1-0.15-0.22-0.2-0.34c0,0,0,0,0-0.01c0.58-1.01,1.31-1.87,2.2-2.56c0.1-0.08,0.14-0.11,0.24-0.19
													c0.53-0.41,0.99-0.86,1.4-1.36c0.23-0.28,0.43-0.57,0.62-0.88c0.02-0.04,0.05-0.07,0.09-0.1
													C313.34,155.37,313.48,155.57,313.58,155.81z"/>
											</g>
										</g>
									</g>
								</g>
								<g>
									<g id="XMLID_437_">
										<g id="XMLID_438_">
											<g id="XMLID_439_">
												<path class="st6" d="M316.4,150.46c-0.17,0.01-0.33,0-0.49-0.03c-0.05-0.01-0.1-0.02-0.14-0.03
													c-0.25-0.05-0.51-0.14-0.76-0.21c-1.32-0.41-2.46-1.7-2.86-3.45c-0.47-2.05,0.23-4.1,1.64-4.89
													c0.22-0.12,0.47-0.21,0.72-0.26c0.28-0.06,0.51-0.03,0.75,0.04c0.21,0.05,0.42,0.14,0.62,0.26
													c1.14,0.65,2.19,2.26,2.61,4.07C319.03,148.45,318.14,150.38,316.4,150.46z"/>
											</g>
										</g>
									</g>
									<g id="XMLID_434_" class="st13">
										<g id="XMLID_435_">
											<g id="XMLID_436_">
												<path d="M316.4,150.46c-0.17,0.01-0.33,0-0.49-0.03c-0.05-0.01-0.1-0.02-0.14-0.03c-0.25-0.05-0.51-0.14-0.76-0.21
													c-1.32-0.41-2.46-1.7-2.86-3.45c-0.47-2.05,0.23-4.1,1.64-4.89c0.22-0.12,0.47-0.21,0.72-0.26
													c0.28-0.06,0.51-0.03,0.75,0.04c0.21,0.05,0.42,0.14,0.62,0.26c1.14,0.65,2.19,2.26,2.61,4.07
													C319.03,148.45,318.14,150.38,316.4,150.46z"/>
											</g>
										</g>
									</g>
									<g id="XMLID_431_">
										<g id="XMLID_432_">
											<g id="XMLID_433_">
												<path class="st6" d="M315.9,150.43c-0.05-0.01-0.1-0.02-0.14-0.03c-0.25-0.05-0.51-0.14-0.76-0.21
													c-1.32-0.41-2.46-1.7-2.86-3.45c-0.47-2.05,0.2-4.11,1.64-4.89c0.53-0.01,1.05,0.16,1.47,0.5
													c0.27,0.22,0.54,0.5,0.78,0.81c0.59,0.77,1.08,1.81,1.33,2.91C317.84,148.22,317.23,149.95,315.9,150.43z"/>
											</g>
										</g>
									</g>
									<g id="XMLID_428_">
										<g id="XMLID_429_">
											<g id="XMLID_430_">
												<path class="st11" d="M316.02,143.16c0,0,0,0.06,0.01,0.18c0.01,0.1,0.01,0.15,0.02,0.25c0,0.01,0,0.03,0,0.03
													c0,0,0,0,0,0.01c0.02,0.47,0.01,1.22-0.11,1.93c-0.01,0.09-0.03,0.18-0.05,0.27c0,0.03-0.02,0.06-0.02,0.08
													c-0.01,0.07-0.02,0.14-0.04,0.21c-0.03,0.14-0.05,0.21-0.08,0.36c-0.28,1.22-0.28,2.47,0.02,3.75
													c0.01,0.06,0.01,0.12-0.01,0.17c-0.25-0.05-0.51-0.14-0.76-0.21c-0.3-1.3-0.25-2.68,0.05-3.96
													c0.04-0.14,0.05-0.21,0.09-0.36c0.03-0.1,0.05-0.2,0.06-0.3c0-0.01,0-0.01,0-0.01c0.02-0.08,0.04-0.16,0.05-0.23
													c0.03-0.18,0.05-0.37,0.07-0.54c0.06-0.61,0.05-1.15,0.04-1.23c0-0.01,0-0.01,0-0.01c0-0.07-0.01-0.11-0.01-0.19
													c-0.02-0.33-0.05-0.67-0.1-1c-0.01-0.14-0.04-0.29-0.06-0.43c-0.02-0.11,0.01-0.22,0.06-0.29
													c0.21,0.05,0.42,0.14,0.62,0.26C315.94,142.31,315.99,142.73,316.02,143.16C316.02,143.16,316.02,143.16,316.02,143.16z
													"/>
											</g>
										</g>
									</g>
								</g>
								<g>
									<g>
										<g id="XMLID_423_">
											<g id="XMLID_424_">
												<g id="XMLID_425_">
													<g id="XMLID_426_">
														<path id="XMLID_427_" class="st6" d="M325.6,159.51c-0.44,0.65-1.25,1.03-2.22,1.09c-1.04,0.07-2.26-0.21-3.43-0.9
															c-2.26-1.33-3.37-3.64-2.42-4.95c0.27-0.37,0.66-0.62,1.14-0.77c1.21-0.37,2.96-0.03,4.56,0.91
															C325.44,156.22,326.51,158.18,325.6,159.51z"/>
													</g>
												</g>
											</g>
										</g>
										<g id="XMLID_419_" class="st13">
											<g id="XMLID_420_">
												<g id="XMLID_421_">
													<g id="XMLID_422_">
														<path d="M325.59,159.51c-0.11,0.16-0.24,0.31-0.4,0.43c-0.17,0.14-0.38,0.27-0.61,0.37
															c-0.35,0.16-0.76,0.26-1.21,0.29c-1.04,0.08-2.26-0.21-3.43-0.9c-2.26-1.33-3.37-3.66-2.43-4.95
															c0.14-0.2,0.32-0.35,0.52-0.48c0.18-0.11,0.37-0.21,0.59-0.27c0.01-0.01,0.02-0.01,0.03-0.01
															c1.21-0.37,2.96-0.03,4.56,0.91C325.44,156.22,326.51,158.18,325.59,159.51z"/>
													</g>
												</g>
											</g>
										</g>
										<g id="XMLID_415_">
											<g id="XMLID_416_">
												<g id="XMLID_417_">
													<path id="XMLID_418_" class="st6" d="M324.48,159.73c-0.25,0.39-0.63,0.68-1.1,0.88c-1.04,0.07-2.26-0.21-3.43-0.9
														c-2.26-1.33-3.37-3.64-2.42-4.95c0.27-0.37,0.66-0.62,1.14-0.77c1.06,0.01,2.29,0.38,3.44,1.06
														C324.32,156.37,325.38,158.36,324.48,159.73z"/>
												</g>
											</g>
										</g>
										<g id="XMLID_414_">
											<path class="st12" d="M320.08,155.06c-0.09-0.07-0.16-0.13-0.23-0.19c0.06,0.04,0.12,0.09,0.17,0.14
												C320.05,155.02,320.06,155.04,320.08,155.06z"/>
										</g>
										<g id="XMLID_413_">
											<path class="st11" d="M325.2,159.95c-0.18,0.14-0.38,0.27-0.61,0.37c-0.13-0.08-0.27-0.16-0.39-0.24
												c-1.05-0.69-1.95-1.54-2.7-2.53c-0.09-0.12-0.14-0.19-0.23-0.31c-0.05-0.07-0.11-0.14-0.17-0.21
												c-0.73-0.89-1.43-1.47-1.52-1.54c-0.01-0.01-0.01-0.01-0.01-0.01s0,0-0.42-0.33c-0.29-0.22-0.6-0.43-0.92-0.63
												c-0.09-0.06-0.16-0.14-0.18-0.24c0.24-0.11,0.36-0.16,0.59-0.27c0.29,0.18,0.56,0.36,0.82,0.56
												c0.05,0.03,0.09,0.07,0.14,0.1c0.01,0.01,0.02,0.02,0.04,0.03c0.05,0.05,0.12,0.1,0.21,0.17
												c0.07,0.06,0.14,0.12,0.23,0.19c0,0.01,0,0.01,0.01,0.01c0.12,0.1,0.26,0.22,0.43,0.36c0.76,0.64,1.32,1.42,1.9,2.17
												c0.01,0.01,0.02,0.02,0.02,0.03c0.62,0.73,1.34,1.36,2.15,1.89c0.15,0.1,0.31,0.19,0.47,0.29
												C325.12,159.84,325.17,159.89,325.2,159.95z"/>
										</g>
									</g>
								</g>
							</g>
							<g>
								<g>
									<path class="st6" d="M303.09,203.49l-0.02-0.48c-0.28-6.43-0.4-12.95-0.52-19.27c-0.07-3.57-0.14-7.14-0.23-10.71
										l-0.01-0.31l0.3-0.08c9.34-2.47,19.39-3.66,30.73-3.59l0.36,0l0.03,0.35c0.85,10.38,1.45,20.9,1.99,30.78l0.02,0.46
										l-0.45-0.05c-12.15-1.29-21.15,0.1-31.73,2.76L303.09,203.49z M303.1,173.33c0.09,3.47,0.16,6.94,0.22,10.4
										c0.12,6.15,0.24,12.51,0.5,18.77c10.05-2.5,19.26-3.9,31.08-2.71c-0.53-9.63-1.12-19.85-1.93-29.95
										C321.97,169.82,312.19,170.95,303.1,173.33z"/>
								</g>
								<g>
									<g id="XMLID_355_">
										<g id="coffee_machine_3_">
											<g id="XMLID_373_">
												<g id="XMLID_405_">
													<g id="XMLID_410_">
														<path id="XMLID_411_" class="st6" d="M324.77,191.58c-4.18,0.15-6.26,0.3-10.68,1.08c-0.96-4.74-1.42-6.53-2.31-10.09
															c5.76-1.49,8.54-1.52,14-1.46C325.38,184.84,325.18,186.73,324.77,191.58z"/>
													</g>
													<g id="XMLID_408_" class="st13">
														<path id="XMLID_409_" d="M325.77,181.39c-1.44-0.01-2.16-0.01-3.64,0.02c-0.02,3.62-0.03,5.5-0.04,10.28
															c1.1-0.06,1.63-0.08,2.69-0.11C325.17,186.88,325.37,185.03,325.77,181.39z"/>
													</g>
													<g id="XMLID_407_">
														<path class="st6" d="M328.83,177.86c0.07,0.95-0.3,1.83-0.93,2.46c-0.02,0.02-0.02,0.02-0.04,0.03
															c0,0.01,0,0.01-0.01,0.02c-0.45,0.43-1.03,0.74-1.7,0.9c-0.13,0.04-0.26,0.06-0.4,0.08c-0.07,0.02-0.14,0.02-0.2,0.03
															c-0.13,0.01-0.27,0.01-0.4,0.01c-4.87-0.03-7.42-0.04-12.48,1.25c-0.28,0.07-0.57,0.12-0.84,0.13
															c-1.86,0.11-3.38-0.91-3.44-2.62c-0.03-0.98,0.4-2,1.1-2.82c0.7-0.82,1.69-1.47,2.77-1.72
															c4.9-1.14,7.58-1.14,12.41-1.27C326.82,174.28,328.69,175.89,328.83,177.86z"/>
													</g>
													<g id="XMLID_406_" class="st13">
														<path d="M328.83,177.86c0.07,0.95-0.3,1.83-0.93,2.46c-0.02,0.02-0.02,0.02-0.04,0.03c-0.56,0.43-1.24,0.75-1.7,0.92
															c-0.15,0.05-0.29,0.09-0.4,0.1c-0.03,0.01-0.05,0.01-0.07,0.01c-1.55-0.01-2.32-0.01-3.93,0.02
															c0.56-0.01,1.04-0.11,1.44-0.28c1.08-0.46,1.59-1.45,1.51-2.59c-0.04-0.56-0.06-0.84-0.09-1.39
															c-0.1-1.45-1.37-2.62-2.99-2.69c1.24-0.05,1.84-0.07,3.05-0.1C326.82,174.28,328.69,175.89,328.83,177.86z"/>
													</g>
												</g>
												<g id="XMLID_374_">
													<g id="XMLID_403_">
														<path id="XMLID_404_" class="st6" d="M320.91,183.88c0.05,0.85,0.08,1.28,0.13,2.18c-1.58,0.05-2.64-0.01-4,0.27
															c-0.06-0.91-0.08-1.35-0.14-2.2C318.27,183.83,319.32,183.92,320.91,183.88z"/>
													</g>
													<g id="XMLID_401_">
														<path id="XMLID_402_" class="st6" d="M320.91,183.88c0.05,0.85,0.08,1.28,0.13,2.18c-1.58,0.05-2.64-0.01-4,0.27
															c-0.06-0.91-0.08-1.35-0.14-2.2C318.27,183.83,319.32,183.92,320.91,183.88z"/>
													</g>
													<g id="XMLID_399_" class="st14">
														<path id="XMLID_400_" class="st12" d="M320.91,183.88c0.05,0.85,0.08,1.28,0.13,2.18c-1.58,0.05-2.64-0.01-4,0.27
															c-0.06-0.91-0.08-1.35-0.14-2.2C318.27,183.83,319.32,183.92,320.91,183.88z"/>
													</g>
													<g id="XMLID_397_">
														<path id="XMLID_398_" class="st12" d="M319.23,183.94c0.05,0.85,0.08,1.29,0.13,2.19c-0.96,0.05-1.53,0.03-2.33,0.2
															c-0.06-0.91-0.08-1.35-0.14-2.2C317.7,183.95,318.27,183.97,319.23,183.94z"/>
													</g>
													<g id="XMLID_395_">
														<path id="XMLID_396_" class="st6" d="M329.67,193.04c0.02,0.44-0.11,0.82-0.33,1.1c-0.22,0.27-0.54,0.43-0.9,0.43
															c-7.02-0.05-10.15,0.2-18.12,1.77c-0.81,0.16-1.51-0.34-1.54-1.16c-0.02-0.41,0.14-0.82,0.4-1.14
															c0.26-0.32,0.62-0.56,1.03-0.64c7.94-1.52,11.07-1.81,18.08-1.88C329,191.51,329.63,192.16,329.67,193.04z"/>
													</g>
													<g id="XMLID_393_">
														<path id="XMLID_394_" class="st6" d="M320.61,177.92c0.06,0.95-0.8,1.76-1.99,1.8c-0.21,0.01-0.42-0.01-0.61-0.05
															c-0.93-0.18-1.52-0.73-1.57-1.51c-0.05-0.78,0.46-1.54,1.36-1.78c0.19-0.05,0.39-0.08,0.6-0.09
															C319.59,176.24,320.55,176.97,320.61,177.92z"/>
													</g>
													<g id="XMLID_391_">
														<path id="XMLID_392_" class="st12" d="M320.61,177.92c0.06,0.95-0.8,1.76-1.99,1.8c-0.21,0.01-0.42-0.01-0.61-0.05
															c-0.93-0.18-1.52-0.73-1.57-1.51c-0.05-0.78,0.46-1.54,1.36-1.78c0.19-0.05,0.39-0.08,0.6-0.09
															C319.59,176.24,320.55,176.97,320.61,177.92z"/>
													</g>
													<g id="XMLID_389_">
														<path id="XMLID_390_" class="st12" d="M319.45,177.96c0.05,0.78-0.54,1.47-1.44,1.72c-0.93-0.18-1.52-0.73-1.57-1.51
															c-0.05-0.78,0.46-1.54,1.36-1.78C318.72,176.55,319.4,177.18,319.45,177.96z"/>
													</g>
													<g id="XMLID_387_">
														<path id="XMLID_388_" class="st6" d="M322.01,181.42c0.06,0.93,0.09,1.41,0.15,2.39c-2.58,0.05-4.07-0.01-6.49,0.54
															c-0.06-0.99-0.1-1.46-0.16-2.4C317.93,181.4,319.44,181.47,322.01,181.42z"/>
													</g>
													<g id="XMLID_385_" class="st14">
														<path id="XMLID_386_" class="st12" d="M322.01,181.42c0.06,0.93,0.09,1.41,0.15,2.39c-2.58,0.05-4.07-0.01-6.49,0.54
															c-0.06-0.99-0.1-1.46-0.16-2.4C317.93,181.4,319.44,181.47,322.01,181.42z"/>
													</g>
													<g id="XMLID_383_">
														<path id="XMLID_384_" class="st12" d="M320.01,181.47c0.06,0.93,0.09,1.41,0.15,2.39c-1.86,0.06-2.8,0.11-4.48,0.49
															c-0.06-0.99-0.1-1.46-0.16-2.4C317.2,181.57,318.15,181.53,320.01,181.47z"/>
													</g>
													<g id="XMLID_381_">
														<path id="XMLID_382_" class="st6" d="M323.77,177.84c0.03,0.4-0.32,0.74-0.78,0.74c-0.46,0.01-0.86-0.31-0.88-0.71
															c-0.03-0.4,0.33-0.73,0.79-0.74C323.36,177.12,323.75,177.44,323.77,177.84z"/>
													</g>
													<g id="XMLID_379_">
														<path id="XMLID_380_" class="st6" d="M326.58,177.83c0.03,0.41-0.31,0.74-0.77,0.74s-0.84-0.33-0.87-0.74
															c-0.03-0.41,0.31-0.74,0.76-0.74C326.16,177.09,326.55,177.42,326.58,177.83z"/>
													</g>
													<g id="XMLID_377_">
														<path id="XMLID_378_" class="st6" d="M312.45,179.08c0.02,0.4-0.33,0.83-0.8,0.95c-0.47,0.12-0.87-0.11-0.89-0.52
															c-0.02-0.41,0.35-0.84,0.81-0.95C312.04,178.45,312.43,178.68,312.45,179.08z"/>
													</g>
													<g id="XMLID_375_">
														<path id="XMLID_376_" class="st11" d="M324.25,185.55c-1.26,0.01-1.89,0.02-3.21,0.06c-0.02-0.4-0.04-0.6-0.06-0.99
															c1.32-0.04,1.95-0.05,3.21-0.05C324.21,184.95,324.23,185.15,324.25,185.55z"/>
													</g>
												</g>
											</g>
										</g>
										<g id="XMLID_356_">
											<g id="XMLID_371_">
												<path id="XMLID_372_" class="st11" d="M322.04,181.69c-2.57,0.04-4.07-0.03-6.48,0.53c-0.16,0.04-0.29-0.06-0.3-0.21
													c-0.01-0.15,0.11-0.3,0.27-0.34c2.4-0.56,3.91-0.48,6.48-0.52c0.17,0,0.31,0.12,0.32,0.27
													C322.33,181.56,322.21,181.68,322.04,181.69z"/>
											</g>
											<g id="XMLID_367_">
												<path id="XMLID_368_" class="st12" d="M323.01,178.85c-0.62,0.01-1.16-0.43-1.2-0.97c-0.04-0.54,0.45-1,1.07-1.01
													c0.62-0.01,1.15,0.42,1.18,0.97C324.1,178.39,323.63,178.84,323.01,178.85z M322.92,177.39
													c-0.29,0.01-0.52,0.22-0.5,0.48c0.02,0.26,0.27,0.46,0.57,0.46c0.29,0,0.52-0.22,0.5-0.48
													C323.46,177.59,323.21,177.38,322.92,177.39z"/>
											</g>
											<g id="XMLID_363_">
												<path id="XMLID_364_" class="st12" d="M325.83,178.83c-0.61,0-1.14-0.45-1.18-1c-0.04-0.55,0.43-1,1.04-1
													c0.61,0,1.14,0.45,1.18,1C326.91,178.39,326.44,178.84,325.83,178.83z M325.73,177.36c-0.29,0-0.51,0.21-0.49,0.47
													c0.02,0.26,0.27,0.47,0.56,0.47c0.29,0,0.51-0.21,0.49-0.47C326.27,177.57,326.02,177.35,325.73,177.36z"/>
											</g>
											<g id="XMLID_359_">
												<path id="XMLID_360_" class="st12" d="M311.67,180.3c-0.64,0.16-1.19-0.15-1.21-0.7c-0.03-0.55,0.47-1.14,1.11-1.3
													c0.63-0.16,1.16,0.16,1.2,0.71C312.79,179.56,312.3,180.14,311.67,180.3z M311.59,178.83c-0.3,0.08-0.53,0.35-0.52,0.61
													c0.01,0.26,0.27,0.41,0.57,0.33c0.3-0.08,0.53-0.35,0.52-0.61C312.14,178.9,311.89,178.75,311.59,178.83z"/>
											</g>
											<g id="XMLID_357_">
												<path id="XMLID_358_" class="st11" d="M318.45,177.44c-0.18,0.01-0.33-0.1-0.34-0.24c-0.02-0.34-0.03-0.51-0.05-0.85
													c-0.01-0.14,0.13-0.26,0.31-0.27c0.18-0.01,0.33,0.1,0.34,0.24c0.02,0.34,0.03,0.51,0.05,0.85
													C318.76,177.31,318.63,177.43,318.45,177.44z"/>
											</g>
										</g>
									</g>
									<g>
										<path class="st11" d="M321.66,187.43c-0.16,0.01-0.24,0.01-0.4,0.01c0-0.07-0.01-0.11-0.01-0.19
											c-1.66,0.06-2.76,0.02-4.2,0.3c0.06,0.93,0.09,1.4,0.14,2.4c0.07,1.2,0.93,2.14,2.05,2.04c0.12-0.01,0.18-0.02,0.29-0.03
											c0.81-0.07,1.45-0.67,1.72-1.43c0.09-0.04,0.17-0.1,0.23-0.18c0.28-0.36,0.42-0.53,0.7-0.87c0.1-0.13,0.15-0.29,0.15-0.46
											c-0.02-0.41-0.03-0.61-0.06-1C322.26,187.68,321.98,187.42,321.66,187.43z M321.87,189.04c0,0.03-0.01,0.07-0.03,0.09
											c-0.18,0.22-0.27,0.33-0.45,0.55c0-0.02,0-0.05,0-0.07c-0.04-0.69-0.06-1.02-0.1-1.68c0.16-0.01,0.24-0.01,0.4-0.02
											c0.06,0,0.12,0.05,0.12,0.12C321.83,188.44,321.84,188.64,321.87,189.04z"/>
										<path class="st11" d="M316.47,192.72c2.19-0.33,3.54-0.43,5.89-0.58c0.38-0.02,0.67-0.45,0.67-0.45
											c-2.87,0.15-4.44,0.26-7.23,0.72C315.79,192.4,316.11,192.77,316.47,192.72z"/>
									</g>
								</g>
							</g>
							<g>
								<g>
									<g>
										<g>
											<g>
												<path class="st6" d="M285.08,239.78c0.05,0.45,0.19,0.87,0.37,1.27c0.26,0.58,0.56,1.16,0.99,1.65
													c0.56,0.65,1.3,1.19,2.14,1.64c0.03,0.01,0.54,0.25,0.56,0.27c0.5,0.28,1.05,0.47,1.61,0.67
													c1.07,0.38,2.22,0.64,3.41,0.66c0.24,0,0.39,0.09,0.51,0.26c0.13,0.23,0.31,0.43,0.46,0.64
													c0.13,0.18,0.26,0.37,0.36,0.56c0.14,0.28,0.35,0.5,0.68,0.63c0.59,0.23,1.25,0.29,1.87,0.31
													c1.66,0.05,3.22-0.09,4.58-0.35c0.71-0.13,1.7-0.32,2.58-0.56c0.96-0.26,1.93-0.56,2.9-0.94
													c0.77-0.3,1.54-0.62,2.25-1.08c0.3-0.19,0.57-0.4,0.72-0.7c0.08-0.16,0.11-0.3,0.2-0.45c0.23-0.43,0.45-0.87,0.67-1.29
													c0.34-0.65,0.62-1.32,0.89-1.98c0.26-0.64,0.55-1.29,0.73-1.94c0.19-0.67,0.39-1.34,0.54-2.04
													c0.25-1.16,0.46-2.37,0.63-3.63c0.08-0.58,0.09-1.28,0.13-1.91c0.01-0.5,0-1.02-0.13-1.53
													c-0.09-0.35-0.26-0.67-0.51-0.94c-0.67-0.73-1.5-1.23-2.4-1.58c-0.84-0.33-1.74-0.48-2.65-0.54
													c-0.39-0.02-0.76-0.1-1.15-0.11c-6.61-0.18-10.83,2.05-11.58,2.41c-0.78,0.37-1.58,0.78-2.37,1.29
													c-0.7,0.45-1.36,0.99-1.98,1.58c-0.46,0.44-0.88,0.91-1.16,1.47c-0.11,0.21-0.17,0.41-0.23,0.63
													c-0.08,0.25-0.08,0.26-0.33,0.27c-1.49,0.07-2.91,0.68-4.03,1.91c-0.42,0.47-0.71,1-0.91,1.51
													C285.19,238.51,285.01,239.15,285.08,239.78z M296.24,234.69c-0.82,0-1.65-0.05-2.44-0.21
													c-0.2-0.04-0.41-0.06-0.56-0.17c0,0,0.34-0.75,1.09-1.38c0.3-0.25,0.62-0.49,0.93-0.7c0.56-0.37,1.14-0.7,1.71-0.97
													c0.87-0.42,1.76-0.77,2.57-1.05c0.8-0.28,1.53-0.47,2.24-0.63c0.66-0.15,1.47-0.23,2.33-0.31
													c1.02-0.1,2.21-0.14,3.2-0.1c1.07,0.05,2.12,0.16,3.11,0.48c0.81,0.26,1.66,0.63,2.21,1.3
													c-0.02,0.03-0.04,0.04-0.07,0.07c-0.08,0.07-0.16,0.13-0.23,0.19c-0.21,0.16-0.44,0.3-0.66,0.43
													c-0.86,0.5-1.8,0.86-2.73,1.17c-0.21,0.07-0.43,0.14-0.65,0.2c-0.12,0.04-0.24,0.07-0.36,0.1
													c-0.7,0.21-1.41,0.37-2.12,0.52c-0.68,0.14-1.39,0.28-2.08,0.37c-0.54,0.07-1.17,0.16-1.58,0.24
													c-0.04,0.01-0.06,0.01-0.09,0.01c-0.01,0.01-0.03,0-0.04,0.01c-0.09,0.02-0.14,0.03-0.23,0.04
													c-0.56,0.07-1.16,0.14-1.76,0.21c-0.54,0.06-1.12,0.14-1.7,0.19C297.65,234.73,296.96,234.7,296.24,234.69z
													 M288.91,238.38c0.2-0.65,0.67-1.11,1.41-1.41c0.06-0.03,0.27-0.09,0.51-0.15c0.19,0.92,0.46,1.77,0.7,2.62
													c0.31,1.11,0.72,2.19,1.15,3.21c0.12,0.29,0.49,1.12,0.85,1.42c-0.11-0.06-0.64-0.29-0.79-0.36
													c-0.79-0.38-1.45-0.9-2.05-1.46c-0.62-0.57-1.23-1.17-1.58-1.92C288.82,239.76,288.67,239.13,288.91,238.38z"/>
												<path class="st8" d="M292.45,235c1.72,0.93,4.48,0.71,10.24-0.05c5.77-0.76,9.2-1.98,10.68-3.55
													c0.98-1.04,0.52-2.45-0.2-3.29c-0.42-0.28-0.87-0.5-1.34-0.68c-0.85-0.32-1.74-0.48-2.65-0.54
													c-0.38-0.02-0.76-0.1-1.14-0.11c-6.65-0.22-10.84,2.07-11.57,2.42c-0.78,0.38-1.58,0.78-2.37,1.28
													c-0.42,0.27-0.82,0.57-1.21,0.89l0,0C291.61,232.59,291.18,234.31,292.45,235z M293.23,234.31c0,0,0.34-0.75,1.09-1.37
													c0.3-0.25,0.61-0.49,0.93-0.71c0.57-0.38,1.14-0.7,1.71-0.98c0.86-0.41,1.75-0.77,2.56-1.05
													c0.81-0.28,1.53-0.47,2.25-0.63c0.66-0.15,1.47-0.23,2.33-0.31c1.03-0.09,2.21-0.15,3.2-0.1
													c1.06,0.05,2.1,0.17,3.1,0.48c0.81,0.26,1.66,0.63,2.21,1.3c-0.02,0.02-0.04,0.04-0.06,0.06
													c-0.08,0.07-0.16,0.14-0.24,0.2c-0.2,0.16-0.43,0.3-0.65,0.43c-0.87,0.5-1.79,0.86-2.73,1.17
													c-0.22,0.07-0.43,0.14-0.65,0.2c-0.12,0.04-0.24,0.07-0.36,0.1c-0.7,0.2-1.4,0.37-2.11,0.52
													c-0.69,0.15-1.38,0.27-2.08,0.36c-0.54,0.07-1.17,0.16-1.58,0.23c-0.03,0.01-0.06,0.01-0.08,0.01
													c-0.01,0-0.03,0.01-0.04,0.01c-0.06,0.01-0.13,0.02-0.19,0.03c-0.01,0-0.03,0.01-0.04,0.01
													c-0.56,0.08-1.15,0.15-1.76,0.22c-0.55,0.06-1.12,0.14-1.7,0.18c-0.68,0.05-1.38,0.02-2.09,0.02
													c-0.81,0-1.64-0.05-2.44-0.21C293.59,234.45,293.38,234.43,293.23,234.31z"/>
												<g>
													<path class="st11" d="M293.24,234.31c0.15,0.12,0.36,0.13,0.56,0.17c0.8,0.16,1.63,0.21,2.44,0.21
														c0.71,0,1.41,0.03,2.08-0.02c0.59-0.04,1.16-0.12,1.7-0.19c0.61-0.07,1.21-0.13,1.76-0.21
														c0.09-0.02,0.14-0.03,0.23-0.04c0.02,0,0.04,0,0.04-0.01c0.03,0.01,0.05,0,0.09-0.01c0.41-0.08,1.04-0.17,1.58-0.24
														c0.69-0.09,1.4-0.22,2.08-0.37c0.71-0.15,1.41-0.31,2.12-0.52c0.12-0.03,0.24-0.07,0.36-0.1
														c0.21-0.06,0.43-0.14,0.65-0.2c0.93-0.3,1.87-0.67,2.73-1.17c0.22-0.13,0.45-0.27,0.66-0.43
														c0.08-0.05,0.16-0.12,0.23-0.19c0.02-0.03,0.04-0.04,0.07-0.07c-0.55-0.67-1.4-1.04-2.21-1.3
														c-0.99-0.32-2.04-0.43-3.11-0.48c-0.99-0.05-2.18,0-3.2,0.1c-0.86,0.08-1.68,0.16-2.33,0.31
														c-0.72,0.16-1.44,0.35-2.24,0.63c-0.81,0.28-1.7,0.63-2.57,1.05c-0.57,0.27-1.15,0.6-1.71,0.97
														c-0.32,0.21-0.63,0.45-0.93,0.7C293.58,233.56,293.24,234.31,293.24,234.31z"/>
												</g>
												<path class="st15" d="M293.19,232.58c0.23-0.3,0.49-0.57,0.67-0.74c0.99-0.92,3.38-2.53,6.85-3.63
													c1.18-0.38,2.61-0.61,4.09-0.69c3.82-0.22,6.21,0.51,7.15,1.09c0.18,0.11,0.43,0.3,0.66,0.53
													c0.46,0.45,0.5,1.22,0.08,1.77c-0.08,0.09-0.17,0.16-0.26,0.23c0,0,0,0,0,0c-2.13-2.03-7.93-1.61-9.89-1.39
													c-1.96,0.37-6.88,1.93-8.99,4.63c0,0,0,0,0,0c-0.1-0.03-0.2-0.07-0.3-0.12C292.75,233.9,292.73,233.17,293.19,232.58z"
													/>
											</g>
										</g>
										<g>
											<g>
												<path class="st12" d="M320.3,207.35c-2.28-1.77-5.24-1.2-8.24-0.45c-1.09,0.27-2.26,0.59-3.19,1.26
													c-0.93,0.67-1.49,1.81-0.93,2.47c0.55,0.65,2.02,0.86,1.76,1.77c-2.45,1.49-5.4,1.78-8.01,2.67
													c-2.07,0.7-3.33,1.78-4.87,3.38c-0.42,0.44-0.85,0.95-0.92,1.51c-0.13,0.94,0.75,1.44,1.63,1.74
													c0.16,0.05,0.14,0.31-0.03,0.41c-0.59,0.34-1.19,0.74-1.7,1.29c0,0-0.01,0.01-0.01,0.01c-0.31,0.34-0.08,0.85,0.32,0.73
													c0.05-0.01,0.1-0.03,0.15-0.04c1.09-0.26,1.94,0.2,1.98,1.05c0.03,0.85-0.77,1.72-1.86,1.96
													c-0.27,0.06-0.07,0.38,0.31,0.41c0.76,0.04,1.53-0.21,2.23-0.48c0.84-0.33,1.68-0.7,2.11-1.69
													c0.43-0.99,0.19-2.51-0.58-2.53c1.56-0.42,3.5-1.02,5.35-1.78c0.81-0.33,1.69-0.78,2.08-1.56
													c0.4-0.78-0.13-1.85-0.96-1.62c2.42-1.15,4.97-1.94,7.35-2.94c2.38-1.01,4.64-2.32,6.36-4.09
													c0.38-0.39,0.72-0.82,0.8-1.32C321.58,208.68,321.01,207.9,320.3,207.35z"/>
											</g>
										</g>
									</g>
								</g>
								<g>
									<path class="st6" d="M266.77,264.53l-0.01-0.53c-0.13-8.04-0.29-16.07-0.45-24.11c-0.15-7.5-0.29-15-0.42-22.51l0-0.29
										l2.1-0.66c21.86-6.93,44.46-14.09,67.68-12.1l0.33,0.03l0.03,0.33c1.44,17.38,2.36,32.58,2.81,46.48l0.01,0.42l-0.42-0.02
										c-25.63-1.06-50.35,5.88-71.15,12.79L266.77,264.53z M266.67,217.66c0.12,7.41,0.27,14.81,0.41,22.22
										c0.15,7.86,0.31,15.72,0.44,23.58c20.65-6.84,45.11-13.65,70.51-12.68c-0.45-13.69-1.36-28.64-2.77-45.7
										c-22.95-1.89-45.37,5.22-67.05,12.09L266.67,217.66z"/>
								</g>
							</g>
						</g>
					</g>
				</g>
				<g>
					<g>
						<path class="st6" d="M173.42,158.97c0.53,0.07,0.81,0.1,1.36,0.18c0.06,3.51-0.12,3.76-0.24,6.59
							c-0.62-0.07-0.93-0.1-1.55-0.16C173.19,162.74,173.41,162.51,173.42,158.97z"/>
						<path class="st6" d="M182.12,160.46c0.19,3.35,0.13,3.72,0.17,6.47c-0.51-0.1-0.76-0.14-1.27-0.23
							c-1.36-1.91-2.02-2.81-3.3-4.53c-0.01,1.5-0.04,2.29-0.05,3.99c-0.62-0.09-0.92-0.13-1.54-0.21c0.06-2.81,0.21-3.09,0.09-6.57
							c0.47,0.07,0.71,0.11,1.19,0.2c1.34,2.31,2.02,2.29,3.3,4.72c0.05-2.18,0.01-2.08-0.1-4.13
							C181.21,160.27,181.52,160.33,182.12,160.46z"/>
						<path class="st6" d="M183.34,166.49c0.2-0.38,0.3-0.56,0.5-0.9c0.57,0.45,1.41,0.88,2.2,1.06c0.9,0.2,1.26,0.02,1.25-0.31
							c-0.02-1.02-3.79-1.48-3.87-3.67c-0.04-1,0.81-1.93,2.72-1.48c0.84,0.2,1.72,0.67,2.35,1.24c-0.17,0.46-0.26,0.65-0.44,1.03
							c-0.62-0.47-1.27-0.79-1.86-0.93c-0.91-0.21-1.25,0.03-1.24,0.41c0.04,1.09,3.82,1.67,3.84,3.66c0.01,0.91-0.87,1.62-2.74,1.2
							C185,167.58,183.94,167.03,183.34,166.49z"/>
						<path class="st6" d="M191.09,163.88c-0.83-0.22-1.25-0.33-2.09-0.54c-0.01-0.48-0.02-0.72-0.04-1.33
							c2.32,0.58,3.47,0.89,5.65,1.51c-0.01,0.58-0.01,0.84-0.02,1.32c-0.79-0.23-1.19-0.34-2.01-0.56
							c-0.02,2.07-0.07,2.86-0.13,5.01c-0.57-0.16-0.85-0.23-1.43-0.39C191.05,166.75,191.1,165.94,191.09,163.88z"/>
						<path class="st6" d="M199.32,171.39c-0.47-0.9-0.72-1.26-1.26-2.08c-0.03-0.01-0.05-0.02-0.09-0.03
							c-0.6-0.19-0.88-0.28-1.41-0.44c-0.04,0.63-0.05,0.9-0.09,1.63c-0.63-0.19-0.82-0.25-1.36-0.42c0.13-2.62,0.22-3.22,0.27-6.31
							c1.07,0.31,1.39,0.4,2.83,0.85c2.21,0.69,3.25,2.11,3.1,3.51c-0.1,0.93-0.69,1.47-1.64,1.48c0.57,0.94,0.83,1.34,1.32,2.37
							C200.34,171.74,200,171.62,199.32,171.39z M198.06,165.89c-0.61-0.19-0.85-0.26-1.31-0.41c-0.04,0.91-0.06,1.28-0.12,2.21
							c0.48,0.15,0.73,0.23,1.31,0.41c1.09,0.35,1.64,0.11,1.7-0.57C199.7,166.86,199.2,166.26,198.06,165.89z"/>
						<path class="st6" d="M202.3,169.75c0.17-1.41,0.25-2,0.4-3.66c0.58,0.2,0.85,0.29,1.33,0.46c-0.14,1.63-0.22,2.26-0.38,3.64
							c-0.14,1.18,0.3,1.77,0.99,2.03c0.7,0.26,1.2-0.02,1.27-1.23c0.08-1.4,0.11-2.12,0.19-3.77c0.61,0.19,0.91,0.29,1.51,0.49
							c-0.08,1.67-0.12,2.38-0.21,3.83c-0.12,1.9-1.4,2.42-2.86,1.86C203.06,172.82,202.07,171.6,202.3,169.75z"/>
						<path class="st6" d="M208.49,171.5c0.12-1.97,1.71-3.03,3.6-2.27c1.05,0.42,1.87,1.19,2.4,2.25
							c-0.36,0.26-0.54,0.43-0.91,0.61c-0.37-0.61-0.87-1.18-1.48-1.42c-1.14-0.45-2.04,0.12-2.11,1.36
							c-0.08,1.24,0.71,2.47,1.87,2.95c0.62,0.26,1.15,0.19,1.59-0.2c0.34,0.54,0.51,0.81,0.85,1.36c-0.6,0.6-1.51,0.64-2.6,0.16
							C209.76,175.47,208.36,173.47,208.49,171.5z"/>
						<path class="st6" d="M216.49,172.52c-0.71-0.29-1.08-0.44-1.82-0.74c0.01-0.57,0.02-0.81,0.04-1.34c2,0.83,2.96,1.2,5.23,2.16
							c-0.03,0.5-0.03,0.72-0.05,1.31c-0.82-0.34-1.23-0.51-2.08-0.85c0,2.52-0.07,3.29-0.15,5.79c-0.55-0.25-0.8-0.36-1.34-0.6
							C216.41,175.77,216.48,175.01,216.49,172.52z"/>
						<path class="st6" d="M220.75,172.94c0.6,0.26,0.89,0.39,1.47,0.64c-0.21,2.55-0.27,3.96-0.52,7.11
							c-0.57-0.26-0.85-0.39-1.4-0.65C220.51,176.92,220.57,175.55,220.75,172.94z"/>
						<path class="st6" d="M223.07,177.23c0.17-2.05,1.68-2.63,3.54-1.76c1.85,0.87,3.16,2.51,3.06,4.6
							c-0.1,2.09-1.6,3.73-3.53,2.82C224.2,181.99,222.9,179.28,223.07,177.23z M228.28,179.47c0.08-1.32-0.67-2.24-1.73-2.72
							c-1.06-0.48-1.93-0.22-2.04,1.1c-0.11,1.31,0.64,2.92,1.74,3.41C227.34,181.75,228.2,180.79,228.28,179.47z"/>
						<path class="st6" d="M235.74,179.89c0.03,2.17,0.1,4.07,0.07,7.68c-0.11-0.06-0.41-0.27-0.69-0.42
							c-0.84-2.62-1.53-4.66-2.86-6.57c0.1,1.34,0.14,3.09,0.22,5.23c-0.65-0.33-1-0.51-1.68-0.85c0.03-3.41-0.03-5.12-0.05-7.42
							c0.43,0.2,0.64,0.31,1.07,0.51c1.2,1.94,2.11,2.71,3.16,5.33c-0.13-2.2-0.08-2.44-0.24-3.84
							C235.22,179.76,235.26,179.66,235.74,179.89z"/>
						<path class="st6" d="M191.82,181.32c0.08-1.71,0.11-2.43,0.17-4.13c-0.8,1.21-1.22,1.74-2.11,2.91
							c-0.28-0.07-0.42-0.1-0.71-0.17c-0.7-1.5-1.04-2.2-1.71-3.73c-0.14,1.65-0.21,2.38-0.37,3.99c-0.6-0.14-0.91-0.2-1.52-0.34
							c0.3-2.71,0.43-3.99,0.71-6.78c0.5,0.11,0.76,0.17,1.26,0.28c0.82,1.97,1.25,2.89,2.14,4.81c1.09-1.46,1.6-2.12,2.58-3.65
							c0.47,0.12,0.7,0.19,1.16,0.31c-0.08,2.86-0.09,3.96-0.18,6.84C192.68,181.54,192.4,181.46,191.82,181.32z"/>
						<path class="st6" d="M199.26,181.91c-1.34-0.44-2.21-0.7-3.31-1.01c-0.21,0.53-0.32,0.79-0.55,1.36
							c-0.58-0.16-0.87-0.24-1.48-0.4c1.21-2.59,1.59-3.55,2.83-6.05c0.61,0.19,0.98,0.3,1.62,0.51c1.24,3.29,1.97,4.44,3.18,7.92
							c-0.62-0.23-0.95-0.35-1.63-0.58C199.66,182.93,199.52,182.59,199.26,181.91z M198.71,180.55c-0.47-1.19-0.72-2.01-1.17-3.01
							c-0.47,0.71-0.73,1.38-1.13,2.3C197.2,180.07,197.79,180.25,198.71,180.55z"/>
						<path class="st6" d="M207.32,179.68c-0.05,2.97-0.02,3.72-0.05,6.81c-0.45-0.19-0.68-0.29-1.13-0.47
							c-1.18-2.37-1.58-3.15-2.75-5.32c0.06,1.75,0.09,2.4,0.13,4.29c-0.5-0.19-0.76-0.29-1.31-0.5c-0.07-3.08-0.17-3.98-0.23-6.91
							c0.46,0.17,0.69,0.26,1.13,0.42c1.18,2.22,1.59,3.04,2.81,5.16c-0.01-1.62-0.03-2.28-0.01-4.07
							C206.46,179.33,206.74,179.44,207.32,179.68z"/>
						<path class="st6" d="M208.68,184.06c0.02-1.45,0.02-2.1,0.07-3.78c0.58,0.25,0.87,0.37,1.45,0.62
							c-0.06,1.67-0.07,2.33-0.1,3.74c-0.03,1.22,0.46,1.95,1.3,2.33c0.85,0.38,1.36,0.1,1.41-1.08c0.05-1.37,0.08-2.08,0.17-3.78
							c0.56,0.25,0.84,0.37,1.39,0.62c-0.09,1.75-0.13,2.5-0.19,3.86c-0.08,1.78-1.14,2.6-2.83,1.83
							C209.64,187.66,208.66,185.97,208.68,184.06z"/>
						<path class="st6" d="M219.47,190.29c-1.18-0.51-1.77-0.77-2.97-1.29c-0.27,0.5-0.42,0.75-0.64,1.31
							c-0.55-0.24-0.83-0.36-1.39-0.61c1.14-2.57,1.81-2.84,3.01-5.57c0.54,0.24,0.81,0.36,1.34,0.6c0.97,3.73,1.5,4.53,2.76,8.04
							c-0.62-0.26-0.93-0.4-1.55-0.66C219.78,191.36,219.68,191,219.47,190.29z M219.01,189.09c-0.4-1-0.58-1.81-0.93-2.98
							c-0.42,0.81-0.63,1.42-1.06,2.08C217.83,188.55,218.22,188.73,219.01,189.09z"/>
						<path class="st6" d="M222.15,186.24c0.57,0.26,0.86,0.39,1.44,0.65c0.01,2.74,0.09,3.08,0.07,5.41
							c1.24,0.54,1.86,0.8,3.06,1.32c-0.01,0.54-0.02,0.81,0.01,1.37c-1.75-0.75-2.65-1.13-4.5-1.92
							C222.1,190.04,222.16,189.59,222.15,186.24z"/>
					</g>
				</g>
			</g>
		</g>
		<g>
			<polygon class="st6" points="230.49,155.92 236.59,152.48 242.65,167.28 			"/>
			<polygon class="st6" points="263.66,161.9 258.16,157.57 249.91,171.26 			"/>
			<polygon class="st6" points="243.63,148.42 251.82,149.2 247.73,167.56 			"/>
		</g>
		<g>
			<g>
				<path class="st6" d="M304.39,105.03c-0.18,0-0.35-0.13-0.38-0.31c-0.04-0.21,0.1-0.41,0.31-0.45c2.55-0.49,5.12-0.92,7.63-1.28
					c0.21-0.03,0.41,0.12,0.44,0.33c0.03,0.21-0.12,0.41-0.33,0.44c-2.5,0.35-5.06,0.78-7.6,1.27
					C304.44,105.02,304.41,105.03,304.39,105.03z"/>
			</g>
			<g>
				<path class="st6" d="M271.67,114.75c-0.15,0-0.3-0.09-0.36-0.24c-0.08-0.2,0.02-0.43,0.22-0.5c9.74-3.9,19.6-6.94,29.32-9.03
					c0.21-0.05,0.42,0.09,0.46,0.3c0.05,0.21-0.09,0.42-0.3,0.46c-9.68,2.09-19.5,5.12-29.2,9
					C271.77,114.74,271.72,114.75,271.67,114.75z"/>
			</g>
			<g>
				<path class="st6" d="M201.32,305.74h-8.62c-0.21,0-0.39-0.17-0.39-0.39c0-0.21,0.17-0.39,0.39-0.39h8.62
					c0.21,0,0.39,0.17,0.39,0.39C201.71,305.56,201.54,305.74,201.32,305.74z"/>
			</g>
			<g>
				<path class="st6" d="M188.09,305.74h-30.91c-0.21,0-0.39-0.17-0.39-0.39c0-0.21,0.17-0.39,0.39-0.39h30.91
					c0.21,0,0.39,0.17,0.39,0.39C188.48,305.56,188.31,305.74,188.09,305.74z"/>
			</g>
		</g>
		<g id="_x3C_Group_x3E_">
			<path class="st16" d="M227.31,204.57c0.96-1.92,3.29-2.7,5.21-1.74c1.92,0.96,2.7,3.29,1.74,5.21l0,0.06
				c-1.39,2.87-2.77,5.9-4.07,8.86c-1.3,2.96-2.55,5.96-3.56,8.95c-0.27,0.74-0.49,1.49-0.71,2.23l-0.13,0.41
				c-0.03,0.06-0.04,0.13-0.05,0.2c-0.04,0.22-0.05,0.43-0.05,0.65c0.1,1.34,0.4,2.65,0.89,3.9c1.14,2.96,2.49,5.84,4.04,8.62
				l0.05,0.09c0.41,0.76,0.27,1.69-0.34,2.29c-0.76,0.75-1.99,0.75-2.74-0.01c-2.55-2.5-4.74-5.35-6.5-8.46
				c-1.02-1.75-1.73-3.66-2.12-5.65c-0.1-0.62-0.14-1.24-0.12-1.86c0.02-0.63,0.11-1.25,0.25-1.86c0.19-0.88,0.39-1.76,0.62-2.61
				c0.91-3.36,2.02-6.67,3.32-9.9c1.3-3.19,2.69-6.28,4.31-9.39L227.31,204.57z"/>
			<path class="st16" d="M228.44,241.87l-0.54,0.4c-0.54,0.39-0.78,1.07-0.6,1.71c0.4,1.22,1.11,2.31,2.05,3.18l3.8-4.54l-3.27-1
				C229.39,241.47,228.85,241.56,228.44,241.87z"/>
			<polygon class="st16" points="233.16,242.62 229.36,247.17 233.61,248.67 237.7,245.35 			"/>
			<path class="st11" d="M251.41,180.53c0.27-0.05,0.55,0.23,0.64,0.63c0.09,0.4-0.05,0.78-0.32,0.83
				c-0.27,0.05-0.55-0.23-0.64-0.63C250.99,180.94,251.15,180.58,251.41,180.53z"/>
			<path class="st17" d="M252.25,185.88c0.7,0.03,1.38-0.25,1.86-0.77c-1.02-0.89-1.92-1.92-2.67-3.05L252.25,185.88z"/>
			<path class="st11" d="M249.3,179.38c0.39-0.48,1-0.74,1.62-0.7l0,0c0.03,0.01,0.05,0.01,0.08,0.01c0.14,0,0.25-0.11,0.25-0.25
				c0-0.14-0.11-0.25-0.25-0.25c-0.78-0.07-1.54,0.23-2.05,0.82c-0.04,0.04-0.06,0.1-0.06,0.16c0,0.14,0.11,0.25,0.24,0.25
				C249.19,179.44,249.26,179.42,249.3,179.38z"/>
			<path class="st16" d="M246.63,204.05c-6.96,0.08-8.03-3.71-8.03-3.71c2.07-2.02,2.17-5.74,1.73-9.05c0.53,0.75,1.2,1.4,2.07,1.98
				c1.67,1.09,3.47,1.32,5.1,0.91c0.03,0,0.06-0.01,0.09-0.03c-0.02,0.07-0.03,0.14-0.04,0.2c-0.42,2.66-0.05,5.5,2.74,6.33
				C250.28,200.67,254.3,203.96,246.63,204.05z"/>
			<path class="st16" d="M247.78,193.16c-0.07,0.32-0.15,0.64-0.19,0.98c-0.03,0.02-0.06,0.03-0.09,0.03
				c-1.63,0.4-3.43,0.18-5.1-0.91c-0.88-0.58-1.54-1.23-2.07-1.98c-0.11-0.84-0.26-1.66-0.41-2.41l7.58,4.15L247.78,193.16z"/>
			<path class="st6" d="M236.47,200.97c0,0,1.1-3.4,2.76-4.47c1.66-1.07,8.95,0.04,10.09,0.49c1.14,0.45,2.29,3.08,2.29,3.08
				L236.47,200.97z"/>
			<path class="st11" d="M235.56,211.63c-0.83,3.58-2.91,6.75-5.88,8.92l-8.09-5.94c0,0,4.77-13.13,9.56-14.28
				C236.05,199.15,237.12,205.19,235.56,211.63z"/>
			<path class="st18" d="M235.78,210.49c-0.06,0.38-0.15,0.76-0.24,1.15c-0.82,3.58-2.9,6.75-5.87,8.92l-0.43-0.32
				c0.16-4.09,1.8-8.19,4.39-10.8L235.78,210.49z"/>
			<polygon class="st6" points="220.55,211.68 219.52,215.79 229.64,222.32 231.35,219.09 			"/>
			<path class="st11" d="M253.9,199.52c-1.13-0.19-2.39-0.36-3.68-0.46c-3.88-0.18-7.77-0.14-11.65,0.13
				c-3.08,0.22-4.4,0.52-7.43,1.14c1.99,27.37,0.79,40.79,0.34,44.7l27.41-0.3c2.83-22.56,2.05-33.94,0.94-39.46
				C259.25,202.3,256.88,200.02,253.9,199.52z"/>
			<path class="st18" d="M258.68,244.73l0.25,0c1.75-14.13,2.11-23.86,1.85-30.53l-12.05-6.96
				C250.58,226.02,255.48,234.6,258.68,244.73z"/>
			<g>
				<path class="st16" d="M252.76,187.48c-0.05,2.57-1.46,4.75-3.43,5.93l-0.01,0c-0.01,0.01-0.02,0.01-0.03,0.01
					c-0.53,0.33-1.11,0.57-1.71,0.72c-0.03,0.02-0.06,0.03-0.09,0.03c-1.63,0.4-3.43,0.18-5.1-0.91c-0.88-0.58-1.54-1.23-2.07-1.98
					c-1.36-1.87-1.93-4.37-2.91-7.88c-0.3-1.03-0.36-2.12-0.17-3.18c0.68-3.78,4.3-6.29,8.07-5.6
					C250.61,175.55,252.87,182.78,252.76,187.48z"/>
				<path class="st13" d="M249.3,193.42c-0.53,0.33-1.11,0.57-1.71,0.72c-0.03,0.02,0.19-3.1,0.19-3.1
					C247.75,190.99,248.93,193.42,249.3,193.42z"/>
			</g>
			<g>
				<path class="st11" d="M249.72,184.8c-0.24,2.16-1.32,4.28-3.12,5.51c-0.23,0.16-0.47,0.3-0.74,0.36
					c-0.89,0.2-1.72-0.56-2.12-1.38c-0.52-1.06-0.63-2.26-0.68-3.44c-0.1-2.78,0.24-5.82,2.2-7.8c0.46-0.47,1.04-0.87,1.69-0.9
					C249.44,177.06,249.89,183.21,249.72,184.8z"/>
				<path class="st11" d="M249.83,174.89c-0.73-0.8-1.75-1.26-2.79-1.57c-1.5-0.45-3.04-0.86-4.6-0.88
					c-1.57-0.02-3.19,0.39-4.38,1.41c-1.32,1.13-1.95,2.85-2.53,4.49c-0.35,0.99-0.69,1.97-1.04,2.96c-0.21,0.6-0.43,1.23-0.33,1.87
					c0.08,0.53,0.36,1,0.64,1.45c0.96,1.56,1.93,3.12,2.89,4.68c0.42,0.67,0.84,1.36,1,2.14c0.16,0.77,0,1.66-0.6,2.18
					c0.97-0.12,1.89-0.67,2.45-1.47c0.09,0.91-0.35,1.86-1.09,2.39c1.12-0.41,2.13-1.12,2.9-2.03c-0.16,0.5-0.46,0.95-0.87,1.29
					c1.55,0.23,2.83-1.16,3.71-2.46c1.09-1.6,2.12-3.61,1.34-5.39c-0.26-0.59-0.69-1.08-0.94-1.67c-0.54-1.27-0.12-2.78,0.72-3.88
					c0.83-1.1,2.02-1.87,3.18-2.62C249.48,177.75,251.01,176.18,249.83,174.89z"/>
			</g>
			<path class="st16" d="M248.45,181.11c1.46,0.43,2.23,2.59,2.29,3.96c0.07,1.51-0.94,2.47-2.26,1.46
				c-0.99-0.78-1.7-1.87-2.02-3.09C246.1,181.95,246.99,180.68,248.45,181.11z"/>
			<g>
				<path class="st6" d="M245.87,374.99c-0.05-0.01-0.1-0.05-0.11-0.11c-0.01-0.05,0.01-0.1,0.05-0.13c0.1-0.05,1.98-1.16,2.89-0.94
					c0.18,0.03,0.33,0.14,0.42,0.29c0.13,0.16,0.13,0.39,0.02,0.56c-0.22,0.32-0.86,0.43-1.59,0.45
					C246.99,375.12,246.43,375.08,245.87,374.99z M248.4,374.03c-0.75,0.11-1.47,0.36-2.12,0.74c1.02,0.12,2.39,0.08,2.64-0.27
					c0.06-0.05,0.08-0.13-0.01-0.28c-0.06-0.1-0.15-0.16-0.26-0.18c-0.08-0.01-0.17-0.01-0.25,0L248.4,374.03z"/>
				<path class="st6" d="M245.82,374.96c-0.04-0.03-0.06-0.07-0.06-0.12c0.01-0.07,0.08-1.53,0.79-2.12
					c0.2-0.17,0.46-0.26,0.72-0.23c0.36,0.03,0.49,0.21,0.49,0.35c0.12,0.63-1.15,1.81-1.81,2.12l-0.05,0
					C245.88,374.98,245.85,374.98,245.82,374.96z M247.19,372.75c-0.17,0.01-0.33,0.08-0.45,0.2c-0.4,0.48-0.63,1.07-0.68,1.69
					c0.67-0.42,1.52-1.36,1.45-1.73c-0.01-0.03-0.03-0.14-0.26-0.14l-0.07,0L247.19,372.75z"/>
				<polygon class="st16" points="240.13,362.42 245.55,362.32 245.36,374.85 239.9,374.96 				"/>
				<path class="st11" d="M246.63,374.63c3.76,2.2,4.9,2.28,9.2,3.13c0.94,0.19,0.39,2.47-1.85,2.51c-3.71,0.07-4.11-0.1-7.27-0.03
					c-2.71,0.05-5.82,0.24-7.98,0.31c-0.07,0-0.13,0-0.2-0.02c-0.43-0.09-0.7-0.51-0.61-0.94l0.95-4.87
					c0.05-0.22,0.23-0.37,0.46-0.38l5.96-0.12C245.78,374.24,246.24,374.37,246.63,374.63z"/>
				<polygon class="st18" points="240.13,362.43 240.01,368.87 245.46,368.77 245.56,362.33 				"/>
				<path class="st6" d="M200.37,375.8c-0.01,0.05-0.05,0.09-0.1,0.1c-0.05,0.01-0.11-0.01-0.13-0.06
					c-0.05-0.09-1.13-1.98-0.89-2.89c0.04-0.17,0.15-0.32,0.3-0.41c0.17-0.12,0.4-0.13,0.57-0.01c0.31,0.23,0.41,0.87,0.41,1.6
					C200.52,374.69,200.47,375.25,200.37,375.8z M199.47,373.28c0.09,0.75,0.32,1.47,0.68,2.12c0.15-1.01,0.14-2.39-0.21-2.63
					c-0.04-0.06-0.12-0.08-0.28,0.01c-0.1,0.05-0.16,0.15-0.18,0.26C199.45,373.11,199.45,373.2,199.47,373.28L199.47,373.28z"/>
				<path class="st6" d="M200.36,375.85c-0.03,0.04-0.07,0.06-0.12,0.05c-0.06-0.01-1.53-0.1-2.1-0.82
					c-0.17-0.2-0.26-0.46-0.22-0.72c0.03-0.35,0.22-0.48,0.36-0.48c0.62-0.11,1.79,1.18,2.09,1.83c0,0.02,0,0.03,0,0.05
					C200.39,375.8,200.38,375.83,200.36,375.85z M198.16,374.47c0.01,0.17,0.07,0.32,0.18,0.45c0.47,0.4,1.06,0.64,1.68,0.69
					c-0.41-0.67-1.33-1.54-1.7-1.47c-0.03,0-0.15,0.02-0.14,0.25c0,0.03,0,0.08,0,0.08L198.16,374.47z"/>
				<polygon class="st16" points="203.19,363.12 208.48,363.39 205.62,376.08 200.29,375.81 				"/>
				<path class="st11" d="M199,375.13c-1.43,1.72-2.18,2.61-6.35,4c-0.92,0.3-0.09,2.49,2.15,2.25c3.7-0.4,1.66-0.35,4.81-0.69
					c2.69-0.29,5.81-0.5,7.95-0.69c0.07,0,0.14-0.02,0.21-0.04c0.42-0.14,0.64-0.59,0.51-1.01l-1.55-4.7
					c-0.07-0.21-0.28-0.35-0.5-0.32l-5.93,0.64C199.82,374.58,199.35,374.78,199,375.13z"/>
				<polygon class="st18" points="203.18,363.12 201.7,369.64 207.01,369.92 208.48,363.39 				"/>
				<path class="st6" d="M231.49,245.02c0,0-2.87,4.6-4.81,10.2c-2.74,7.92-2.69,12.64-3.55,17.98c-1.51,9.4-2.85,16-4.5,23.14
					c-5.14,22.35-18.05,69.56-18.05,69.56l9.6,1.91c0,0,18.66-54.94,23.35-70.94c4.24-14.4,15.08-52.24,15.08-52.24L231.49,245.02z"
					/>
				<path class="st14" d="M231.49,245.02c0,0-2.87,4.6-4.81,10.2c-2.74,7.92-2.69,12.64-3.55,17.98c-1.51,9.4-2.85,16-4.5,23.14
					c-5.14,22.35-18.05,69.56-18.05,69.56l9.6,1.91c0,0,18.66-54.94,23.35-70.94c4.24-14.4,15.08-52.24,15.08-52.24L231.49,245.02z"
					/>
				<path class="st6" d="M199.42,364.17l-0.03,3.4l11.54,1.01c0,0,0.94-3.73,0.9-3.73L199.42,364.17z"/>
				<path class="st19" d="M243.6,262.07c-3.42,11.88-7.75,26.91-10.06,34.8c-0.11,0.38-0.24,0.78-0.35,1.2
					c0.7-13.11,2.81-35.1,9.38-36.05C242.91,261.96,243.26,261.98,243.6,262.07z"/>
				<path class="st6" d="M240.3,244.79c0,0-2.05,36.12-2.01,53.18c0.04,15.9,0.26,69.68,0.26,69.68l9.21-0.18
					c0,0,5.32-54.86,6.62-71.03c1.23-15.31,4.51-51.71,4.51-51.71L240.3,244.79z"/>
				<path class="st14" d="M240.3,244.79c0,0-2.05,36.12-2.01,53.18c0.04,15.9,0.26,69.68,0.26,69.68l9.21-0.18
					c0,0,5.32-54.86,6.62-71.03c1.23-15.31,4.51-51.71,4.51-51.71L240.3,244.79z"/>
				<path class="st6" d="M237.12,364.45l0.39,3.38l11.2-0.22c0,0,0.45-3.8,0.4-3.8L237.12,364.45z"/>
			</g>
			<path class="st16" d="M266.97,225.59c2.63,0.3,5-3.21,5.53-5.8c0.9-4.44-1.57-8.79-3.95-12.65c-2.87-4.66-5.74-9.32-8.6-13.99
				c-0.41-0.67,2.21,3.6,0.75,1.04c-0.81-1.42-3.6-1.44-4.72,0.93c3.01,5.52,3.55,10.1,5.33,16.13c0.41,1.4,0.79,2.88,0.44,4.3
				c-0.65,2.63-5.97,0.46-4.65,3.02C258.07,220.47,261.36,224.94,266.97,225.59z"/>
			<path class="st11" d="M258.66,202.3c4.62,4.35,7.02,13.09,7.02,13.09l-8.28,4.47c0,0-9.87-8.1-8.57-15.05
				C249.82,199.49,252.96,196.9,258.66,202.3z"/>
			<polygon class="st6" points="252.96,217.83 255.55,221.01 266.95,214.77 265.51,211.19 			"/>
			<g>
				<path class="st16" d="M261.17,195.14c-0.77-1.59-2.5-4.8-3.26-6.39c-0.13-0.26-0.26-0.53-0.5-0.7
					c-0.19-0.13-0.41-0.17-0.64-0.21c-1.71-0.32-3.5-0.65-5.17-0.17c-0.12,0.04-0.25,0.08-0.33,0.18c-0.07,0.09-0.08,0.2-0.1,0.31
					c-0.13,0.95-0.26,1.91-0.39,2.86c-0.03,0.21-0.06,0.43,0.02,0.63c0.07,0.2,0.24,0.35,0.4,0.49c0.82,0.72,1.64,1.44,2.45,2.16
					c0.42,0.37,0.86,0.75,1.4,0.86c0.83,0.17,1.64-0.32,2.42-0.65C258.35,194.14,261.17,195.14,261.17,195.14z"/>
			</g>
		</g>
	</g>
</g>
</svg>
