<svg width="24" height="24" viewBox="0 0 24 24" fill="none" xmlns="http://www.w3.org/2000/svg">
<path d="M12 0C18.6276 0 24 5.59567 24 12.4987C24 17.6607 20.9952 22.0927 16.7076 23.9988L13.686 15.8121C14.396 15.4199 14.9597 14.7916 15.2871 14.0271C15.6146 13.2626 15.687 12.406 15.4929 11.5937C15.2987 10.7814 14.8492 10.0601 14.2159 9.54472C13.5826 9.02934 12.8019 8.74952 11.9982 8.74981C11.1945 8.75011 10.414 9.03052 9.78103 9.54637C9.14806 10.0622 8.69903 10.7838 8.50545 11.5963C8.31187 12.4087 8.38488 13.2653 8.71285 14.0295C9.04082 14.7938 9.60488 15.4217 10.3152 15.8134L7.2936 24C5.12965 23.0382 3.28472 21.4353 1.98802 19.3905C0.691328 17.3458 2.41751e-05 14.9492 0 12.4987C0 5.59567 5.3724 0 12 0Z" fill="#071B85"/>
</svg>
