<svg width="119" height="28" viewBox="0 0 119 28" fill="none" xmlns="http://www.w3.org/2000/svg">
<path d="M0.550293 2.0131H8.17243C13.0318 2.0131 17.046 4.82468 17.046 11.2442V12.5931C17.046 19.0613 13.2918 21.9704 8.3187 21.9704H0.550293V2.0131ZM4.80829 5.63727V18.33H8.07492C10.8377 18.33 12.6905 16.526 12.6905 12.5118V11.4555C12.6905 7.44123 10.7402 5.63727 7.92865 5.63727H4.80829ZM19.305 5.83229H22.7179L23.2705 9.58648C23.9205 7.03493 25.5782 5.66977 28.5848 5.66977H29.6412V9.97653H27.886C24.4243 9.97653 23.5792 11.1792 23.5792 14.5921V22.0192H19.37V5.83229H19.305ZM30.4863 14.2508V13.7957C30.4863 8.38384 33.948 5.426 38.661 5.426C43.4716 5.426 46.8357 8.38384 46.8357 13.7957V14.2508C46.8357 19.5652 43.5691 22.4255 38.661 22.4255C33.4441 22.3767 30.4863 19.5814 30.4863 14.2508ZM42.529 14.202V13.7957C42.529 10.7891 41.0175 8.98516 38.6123 8.98516C36.2557 8.98516 34.6955 10.6429 34.6955 13.7957V14.202C34.6955 17.1111 36.207 18.7688 38.6123 18.7688C41.0175 18.7201 42.529 17.1111 42.529 14.202ZM49.046 5.83229H52.5564L52.9627 8.88765C53.8078 6.83991 55.6118 5.426 58.2771 5.426C62.3888 5.426 65.1029 8.38384 65.1029 13.8607V14.3158C65.1029 19.6302 62.0963 22.4417 58.2771 22.4417C55.7255 22.4417 53.9703 21.2879 53.1089 19.4351V27.6098H48.9972L49.046 5.83229ZM60.8286 14.202V13.8445C60.8286 10.6266 59.1709 9.03392 56.9607 9.03392C54.6041 9.03392 53.0439 10.8379 53.0439 13.8445V14.1533C53.0439 17.0136 54.5554 18.8176 56.9119 18.8176C59.3334 18.7688 60.8286 17.2249 60.8286 14.202ZM71.3273 19.0288L70.9698 21.9867H67.3619V0.42041H71.4736V8.69263C72.3837 6.57988 74.1877 5.426 76.7392 5.426C80.6072 5.47475 83.4675 8.14006 83.4675 13.5032V14.007C83.4675 19.3701 80.7534 22.4417 76.6417 22.4417C73.9277 22.3767 72.1724 21.1253 71.3273 19.0288ZM79.1445 14.007V13.6007C79.1445 10.6429 77.5356 8.98516 75.2766 8.98516C72.9688 8.98516 71.3599 10.8379 71.3599 13.6495V14.007C71.3599 17.0136 72.92 18.7688 75.2278 18.7688C77.6981 18.7688 79.1445 17.2249 79.1445 14.007ZM85.2715 14.2508V13.7957C85.2715 8.38384 88.7331 5.426 93.4462 5.426C98.2568 5.426 101.621 8.38384 101.621 13.7957V14.2508C101.621 19.5652 98.3055 22.4255 93.4462 22.4255C88.2293 22.3767 85.2715 19.5814 85.2715 14.2508ZM97.3466 14.202V13.7957C97.3466 10.7891 95.8352 8.98516 93.4299 8.98516C91.0734 8.98516 89.5132 10.6429 89.5132 13.7957V14.202C89.5132 17.1111 91.0247 18.7688 93.4299 18.7688C95.8515 18.7201 97.3466 17.1111 97.3466 14.202ZM107.13 13.6007L101.458 5.83229H106.318L109.584 10.6916L112.9 5.83229H117.71L111.957 13.5519L118.019 21.9867H113.257L109.552 16.6236L105.944 21.9867H100.971L107.13 13.6007Z" fill="black"/>
</svg>
