<svg width="15" height="15" viewBox="0 0 15 15" fill="none" xmlns="http://www.w3.org/2000/svg">
<path d="M11.4783 0.703613C9.82472 0.703613 8.48442 2.04692 8.48442 3.7035C8.48402 4.09706 8.56115 4.48684 8.71139 4.85059C8.86163 5.21434 9.08205 5.54494 9.36006 5.8235C9.63806 6.10207 9.96822 6.32315 10.3317 6.47412C10.6951 6.62509 11.0847 6.703 11.4783 6.7034H14.4727V3.7035C14.4733 2.90864 14.1582 2.14605 13.5967 1.58348C13.0352 1.0209 12.2732 0.704411 11.4783 0.703613ZM11.4783 8.70332H3.49412C1.84055 8.70332 0.500244 10.0466 0.500244 11.7037C0.500244 13.3603 1.84055 14.7036 3.49412 14.7036H11.4788C13.1319 14.7036 14.4727 13.3603 14.4727 11.7037C14.4727 10.0466 13.1319 8.70332 11.4783 8.70332Z" fill="#36C5F0"/>
</svg>
