<svg width="15" height="15" viewBox="0 0 15 15" fill="none" xmlns="http://www.w3.org/2000/svg">
<path d="M3.46263 14.7036C4.2575 14.7028 5.0195 14.3863 5.58104 13.8237C6.14258 13.2612 6.45767 12.4986 6.45701 11.7037C6.45767 10.9088 6.14258 10.1463 5.58104 9.58369C5.0195 9.02111 4.2575 8.70462 3.46263 8.70382H0.468752V11.7037C0.468752 13.3603 1.80905 14.7036 3.46263 14.7036ZM3.46263 6.7039H11.4473C13.1004 6.7039 14.4412 5.36059 14.4412 3.70351C14.4418 2.90864 14.1268 2.14605 13.5652 1.58348C13.0037 1.0209 12.2417 0.704411 11.4468 0.703613H3.46263C1.80905 0.703613 0.468752 2.04692 0.468752 3.70351C0.468356 4.09706 0.545483 4.48684 0.695725 4.85059C0.845968 5.21434 1.06638 5.54494 1.34439 5.8235C1.6224 6.10207 1.95255 6.32315 2.316 6.47412C2.67945 6.62509 3.06907 6.703 3.46263 6.7034" fill="#ECB22E"/>
</svg>
