<svg width="15" height="15" viewBox="0 0 15 15" fill="none" xmlns="http://www.w3.org/2000/svg">
<path d="M0.500002 3.70351C0.499606 4.09706 0.576732 4.48684 0.726974 4.85059C0.877217 5.21434 1.09763 5.54494 1.37564 5.8235C1.65365 6.10207 1.9838 6.32315 2.34725 6.47412C2.7107 6.62509 3.10032 6.703 3.49388 6.7034C4.28875 6.7026 5.05075 6.38611 5.61229 5.82353C6.17383 5.26096 6.48892 4.49837 6.48826 3.70351V0.703613H3.49388C1.8403 0.703613 0.500002 2.04692 0.500002 3.70351ZM8.48417 3.70351V11.7032C8.48417 13.3603 9.82448 14.7036 11.4781 14.7036C12.2729 14.7028 13.0349 14.3863 13.5965 13.8237C14.158 13.2612 14.4731 12.4986 14.4724 11.7037V3.70351C14.4728 3.30991 14.3957 2.92008 14.2454 2.5563C14.0951 2.19252 13.8747 1.8619 13.5966 1.58333C13.3186 1.30476 12.9883 1.08369 12.6248 0.932745C12.2613 0.781802 11.8716 0.703942 11.4781 0.703613C9.82448 0.703613 8.48417 2.04692 8.48417 3.70351Z" fill="#E01E5A"/>
</svg>
