<svg width="15" height="15" viewBox="0 0 15 15" fill="none" xmlns="http://www.w3.org/2000/svg">
<path d="M14.4411 11.7037C14.4411 10.0466 13.1003 8.70332 11.4467 8.70332C9.7931 8.70332 8.4528 10.0466 8.4528 11.7037V14.7036H11.4467C12.2415 14.7028 13.0036 14.3863 13.5651 13.8237C14.1266 13.2612 14.4417 12.4986 14.4411 11.7037ZM6.45688 11.7037V3.7035C6.45755 2.90864 6.14246 2.14605 5.58092 1.58348C5.01938 1.0209 4.25738 0.704411 3.46251 0.703613C1.80893 0.703613 0.468628 2.04692 0.468628 3.7035V11.7032C0.468628 13.3608 1.80893 14.7041 3.46251 14.7041C4.25738 14.7033 5.01938 14.3868 5.58092 13.8242C6.14246 13.2617 6.45755 12.4991 6.45688 11.7042" fill="#2EB67D"/>
</svg>
