<svg width="84" height="26" viewBox="0 0 84 26" fill="none" xmlns="http://www.w3.org/2000/svg">
<path d="M0.425062 23.4263L1.89318 19.9949C3.50064 21.1853 5.5973 21.8154 7.69447 21.8154C9.23226 21.8154 10.2107 21.2204 10.2107 20.3101C10.1756 17.7889 0.949352 19.7498 0.87918 13.4112C0.844093 10.1897 3.71015 7.70359 7.76464 7.70359C10.1756 7.70359 12.5875 8.29906 14.2997 9.66492L12.9279 13.1696C11.3525 12.1566 9.40669 11.4503 7.55463 11.4503C6.29653 11.4503 5.45746 12.0453 5.45746 12.8162C5.49255 15.3023 14.7895 13.9364 14.8942 19.9949C14.8942 23.2865 12.0978 25.5977 8.1135 25.5977C5.17827 25.5977 2.48714 24.8975 0.424561 23.4263H0.425062ZM58.8831 18.7523C58.5125 19.4108 57.9735 19.9588 57.3212 20.3402C56.669 20.7216 55.927 20.9226 55.1715 20.9227C52.8167 20.9227 50.9079 19.0099 50.9079 16.6506C50.9079 14.2913 52.8167 12.3786 55.1715 12.3786C55.927 12.3787 56.669 12.5797 57.3212 12.9611C57.9735 13.3425 58.5125 13.8905 58.8831 14.549L62.9647 12.2834C61.4359 9.55114 58.5197 7.70359 55.1715 7.70359C50.2398 7.70359 46.242 11.709 46.242 16.6506C46.242 21.5918 50.2398 25.5977 55.1715 25.5977C58.5197 25.5977 61.4359 23.7501 62.9647 21.0179L58.8831 18.7523ZM17.5427 25.2473H22.6453V0.255737H17.5432L17.5427 25.2473ZM65.5415 0.255737V25.2473H70.6441V17.7599L76.6905 25.2473H83.2125L75.5236 16.3524L82.6532 8.05245H76.4108L70.6441 14.953V0.255737H65.5415ZM38.3655 8.05345V10.085C37.527 8.684 35.4649 7.70359 33.2981 7.70359C28.8245 7.70359 25.2948 11.6608 25.2948 16.6331C25.2948 21.6053 28.8245 25.5977 33.2981 25.5977C35.4649 25.5977 37.527 24.6173 38.3655 23.2163V25.2473H43.4681V8.05345H38.3655ZM38.3655 18.7869C37.6317 20.0124 36.0939 20.9222 34.3817 20.9222C32.0264 20.9222 30.1177 19.0099 30.1177 16.6506C30.1177 14.2913 32.0264 12.3786 34.3817 12.3786C36.0939 12.3786 37.6317 13.3239 38.3655 14.584V18.7869Z" fill="black"/>
</svg>
