<svg width="141" height="43" viewBox="0 0 141 43" fill="none" xmlns="http://www.w3.org/2000/svg">
<path d="M21.5727 0.0791016C9.9747 0.0791016 0.572266 9.48129 0.572266 21.0792C0.572266 32.6777 9.9747 42.0791 21.5727 42.0791C33.1719 42.0791 42.5733 32.6777 42.5733 21.0792C42.5733 9.48204 33.1719 0.0801046 21.5724 0.0801046L21.5727 0.0791016ZM31.2033 30.3673C30.8271 30.9842 30.0196 31.1798 29.4028 30.8011C24.4721 27.7894 18.265 27.1073 10.955 28.7774C10.2506 28.9379 9.54839 28.4966 9.3879 27.7919C9.22665 27.0872 9.66625 26.3851 10.3724 26.2246C18.372 24.3969 25.2339 25.1839 30.7695 28.5668C31.3864 28.9454 31.582 29.7504 31.2033 30.3673ZM33.7737 24.6492C33.2997 25.4196 32.2916 25.6628 31.5218 25.1889C25.8769 21.7192 17.2722 20.7144 10.5954 22.7411C9.72945 23.0026 8.81489 22.5146 8.55208 21.6502C8.29127 20.7843 8.77953 19.8715 9.64394 19.6082C17.2707 17.2941 26.7521 18.415 33.2345 22.3985C34.0044 22.8725 34.2477 23.8806 33.7737 24.6495V24.6492ZM33.9944 18.6949C27.226 14.6748 16.0592 14.3051 9.59704 16.2664C8.55935 16.5811 7.46197 15.9953 7.1475 14.9576C6.83303 13.9194 7.41834 12.8228 8.45678 12.5073C15.8749 10.2554 28.2066 10.6905 35.9991 15.3165C36.9344 15.8704 37.2404 17.0759 36.6862 18.008C36.1345 18.9414 34.9257 19.2491 33.9954 18.6949H33.9944ZM57.7074 19.4653C54.0812 18.6006 53.4367 17.9937 53.4367 16.7186C53.4367 15.5139 54.5702 14.7031 56.2579 14.7031C57.8929 14.7031 59.5129 15.3187 61.2132 16.5861C61.2633 16.6245 61.3285 16.6398 61.3912 16.6298C61.4564 16.6203 61.5116 16.5854 61.5492 16.533L63.3196 14.0373C63.3924 13.9345 63.3723 13.7928 63.2745 13.7143C61.2508 12.0911 58.9738 11.3019 56.3106 11.3019C52.396 11.3019 49.6601 13.6514 49.6601 17.013C49.6601 20.6178 52.0199 21.8942 56.0974 22.8795C59.5656 23.6787 60.1524 24.3483 60.1524 25.545C60.1524 26.8716 58.9687 27.6966 57.0629 27.6966C54.9464 27.6966 53.2185 26.9819 51.2876 25.3118C51.24 25.2691 51.1748 25.2516 51.1146 25.2541C51.0494 25.2591 50.9917 25.2892 50.9516 25.3368L48.9655 27.6991C48.8827 27.7994 48.8927 27.9449 48.988 28.0301C51.2349 30.0363 53.9984 31.0945 56.9826 31.0945C61.2006 31.0945 63.9265 28.79 63.9265 25.2215C63.934 22.2105 62.131 20.5428 57.7149 19.4685L57.7074 19.4653ZM73.4709 15.8893C71.6428 15.8893 70.1431 16.6095 68.9043 18.0853V16.4242C68.9043 16.293 68.799 16.1862 68.6686 16.1862H65.4211C65.2907 16.1862 65.1854 16.293 65.1854 16.4242V34.8812C65.1854 35.0116 65.2907 35.1194 65.4211 35.1194H68.6686C68.799 35.1194 68.9043 35.0116 68.9043 34.8812V29.0558C70.1431 30.4425 71.6428 31.1221 73.4709 31.1221C76.8688 31.1221 80.3094 28.5066 80.3094 23.5064C80.3144 18.5053 76.8739 15.889 73.4734 15.889L73.4709 15.8893ZM76.5328 23.5064C76.5328 26.0515 74.9655 27.8295 72.7186 27.8295C70.4992 27.8295 68.8241 25.9713 68.8241 23.5064C68.8241 21.0414 70.4992 19.1836 72.7186 19.1836C74.9279 19.1834 76.5328 21.001 76.5328 23.5062V23.5064ZM89.1241 15.8893C84.7481 15.8893 81.32 19.2586 81.32 23.5609C81.32 27.817 84.7255 31.1497 89.0714 31.1497C93.4624 31.1497 96.9005 27.7919 96.9005 23.5064C96.9005 19.2356 93.485 15.8898 89.1241 15.8898V15.8893ZM89.1241 27.8546C86.7969 27.8546 85.0415 25.9838 85.0415 23.5052C85.0415 21.0153 86.7367 19.2085 89.0714 19.2085C91.4136 19.2085 93.179 21.0785 93.179 23.5596C93.179 26.049 91.4738 27.8546 89.1241 27.8546ZM106.244 16.1862H102.671V12.5334C102.671 12.4025 102.565 12.2957 102.435 12.2957H99.1875C99.0571 12.2957 98.9493 12.4025 98.9493 12.5334V16.1862H97.3895C97.2591 16.1862 97.1538 16.293 97.1538 16.4242V19.2145C97.1538 19.3454 97.2591 19.4525 97.3895 19.4525H98.9493V26.6734C98.9493 29.5899 100.401 31.0695 103.268 31.0695C104.431 31.0695 105.397 30.8287 106.307 30.3121C106.382 30.272 106.427 30.1918 106.427 30.1065V27.4483C106.427 27.3681 106.385 27.2903 106.314 27.2477C106.244 27.2026 106.156 27.2001 106.084 27.2377C105.459 27.5511 104.855 27.6966 104.178 27.6966C103.137 27.6966 102.671 27.2226 102.671 26.1644V19.4537H106.244C106.375 19.4537 106.48 19.3469 106.48 19.2157V16.4257C106.485 16.2945 106.38 16.1877 106.247 16.1877L106.244 16.1862ZM118.693 16.2005V15.7518C118.693 14.432 119.199 13.8435 120.333 13.8435C121.01 13.8435 121.554 13.9779 122.163 14.181C122.238 14.2046 122.316 14.1928 122.376 14.1479C122.439 14.103 122.474 14.031 122.474 13.9548V11.2189C122.474 11.1143 122.409 11.0218 122.306 10.9909C121.664 10.7996 120.842 10.6032 119.608 10.6032C116.611 10.6032 115.024 12.2919 115.024 15.485V16.1721H113.464C113.334 16.1721 113.226 16.279 113.226 16.4099V19.2145C113.226 19.3454 113.334 19.4525 113.464 19.4525H115.024V30.588C115.024 30.7209 115.132 30.8262 115.262 30.8262H118.507C118.64 30.8262 118.745 30.7209 118.745 30.588V19.4532H121.777L126.421 30.588C125.895 31.7566 125.376 31.9898 124.668 31.9898C124.097 31.9898 123.492 31.8193 122.878 31.4807C122.82 31.4506 122.75 31.4456 122.69 31.4632C122.627 31.4858 122.575 31.5309 122.549 31.5911L121.449 34.006C121.396 34.1214 121.441 34.2543 121.551 34.3145C122.7 34.9364 123.736 35.2022 125.017 35.2022C127.414 35.2022 128.741 34.0837 129.907 31.0795L135.539 16.5255C135.57 16.4522 135.559 16.3695 135.514 16.3045C135.472 16.2401 135.399 16.2012 135.321 16.2012H131.941C131.838 16.2012 131.748 16.2657 131.715 16.3607L128.252 26.2496L124.46 16.3542C124.425 16.2622 124.337 16.2012 124.24 16.2012H118.693V16.2005ZM111.475 16.1862H108.228C108.097 16.1862 107.99 16.293 107.99 16.4242V30.588C107.99 30.7209 108.097 30.8262 108.228 30.8262H111.475C111.606 30.8262 111.714 30.7209 111.714 30.588V16.4252C111.714 16.294 111.608 16.1872 111.475 16.1872V16.1862ZM109.87 9.73657C108.584 9.73657 107.541 10.7778 107.541 12.064C107.541 13.3509 108.584 14.3934 109.87 14.3934C111.157 14.3934 112.198 13.3509 112.198 12.064C112.198 10.778 111.154 9.73657 109.87 9.73657ZM138.313 20.7404C137.029 20.7404 136.028 19.7085 136.028 18.4554C136.028 17.2023 137.042 16.1586 138.326 16.1586C139.609 16.1586 140.61 17.1903 140.61 18.4424C140.61 19.6955 139.597 20.7404 138.313 20.7404ZM138.326 16.3858C137.154 16.3858 136.269 17.3161 136.269 18.4554C136.269 19.5942 137.149 20.512 138.313 20.512C139.484 20.512 140.369 19.5824 140.369 18.4424C140.369 17.3036 139.489 16.3858 138.326 16.3858ZM138.832 18.6773L139.479 19.5821H138.932L138.351 18.7521H137.852V19.5821H137.395V17.1837H138.463C139.023 17.1837 139.389 17.4689 139.389 17.9488C139.391 18.3421 139.163 18.5823 138.835 18.6773H138.832ZM138.446 17.5953H137.852V18.3538H138.446C138.742 18.3538 138.92 18.2086 138.92 17.9742C138.92 17.7274 138.742 17.5953 138.446 17.5953Z" fill="#1ED760"/>
</svg>
