<svg width="116" height="29" viewBox="0 0 116 29" fill="none" xmlns="http://www.w3.org/2000/svg">
<path d="M37.7464 11.4076C37.7464 9.34597 35.6848 7.14692 32.2488 7.14692C28.4005 7.14692 24.0024 10.0332 23.3152 15.8057C22.628 21.5782 26.2014 24.1896 29.9123 24.1896C33.6232 24.1896 35.41 22.8152 37.3341 20.891C35.6848 18.8294 33.4858 19.7915 33.0735 19.9289C32.6611 20.2038 31.9739 20.4787 30.8744 20.4787C29.5 20.4787 27.9881 19.7915 27.9881 17.1801C37.0592 16.218 37.7464 13.4692 37.7464 11.4076ZM33.3483 11.6825C33.3483 12.3697 33.0735 13.4692 28.5379 14.019C29.5 10.5829 31.2867 10.3081 32.1114 10.3081C32.936 10.4455 33.3483 10.9953 33.3483 11.6825ZM18.0924 12.2322C18.0924 12.2322 16.1682 18.2796 16.0308 18.8294C16.0308 18.2796 14.519 7.4218 14.519 7.4218C11.2204 7.4218 9.43365 9.75829 8.609 12.2322C8.609 12.2322 6.27251 18.2796 6.13507 18.8294C5.99763 18.4171 5.72275 12.3697 5.72275 12.3697C5.44787 9.34597 2.69905 7.4218 0.5 7.4218L3.24882 23.9147C6.68483 23.9147 8.609 21.5782 9.57109 19.1043C9.57109 19.1043 11.6327 13.7441 11.7701 13.4692C11.7701 13.7441 13.282 23.9147 13.282 23.9147C16.718 23.9147 18.6422 21.7156 19.6043 19.3791L24.4147 7.4218C20.8412 7.4218 19.0545 9.75829 18.0924 12.2322ZM50.5284 7.00948C48.4668 7.00948 46.8175 8.109 45.4431 9.89573L46.5427 0C43.6564 0 41.4573 2.47393 40.9076 6.04739L38.7085 23.7772C40.3578 23.7772 42.0071 23.3649 42.9692 22.128C43.7938 23.2275 45.0308 24.0521 46.8175 24.0521C51.628 24.0521 54.9265 18.5545 54.9265 13.3318C55.064 8.52133 52.7275 7.00948 50.5284 7.00948ZM49.9787 15.5308C49.4289 18.4171 47.9171 20.3412 46.2678 20.3412C44.7559 20.3412 44.0687 19.654 44.0687 19.654C44.3436 17.1801 44.6185 15.5308 45.1682 14.1564C45.718 12.782 47.0924 10.7204 48.4668 10.7204C49.8412 10.8578 50.5284 12.6446 49.9787 15.5308ZM67.0213 7.4218H63.7227V7.28436C63.9976 5.08531 64.41 3.98578 66.1967 3.84834C67.2962 3.7109 67.846 3.16114 67.9834 2.47393C68.1208 1.92417 68.3957 0.137441 68.3957 0.137441C61.6611 0.137441 59.5995 3.0237 59.0498 7.4218V7.55924H58.9123C57.8128 7.55924 56.5758 8.79621 56.4384 10.3081L56.3009 10.8578H58.5L56.5758 26.2512L56.0261 29C56.1635 29 56.1635 29 56.3009 29C59.4621 28.8626 61.3863 26.3886 61.936 22.8152L63.4479 10.7204H64.5474C65.5095 10.7204 66.7465 9.75829 67.0213 7.97156V7.4218ZM84.3389 7.14692C80.4905 7.14692 76.9171 10.0332 75.8175 14.4313C74.718 18.8294 76.3673 24.1896 82.0024 24.1896C87.6374 24.1896 90.936 18.6919 90.936 14.1564C90.7986 9.62085 87.7749 7.14692 84.3389 7.14692ZM85.8507 15.3934C85.7133 17.455 84.7512 20.4787 82.2772 20.4787C79.8033 20.4787 80.2156 16.9052 80.3531 15.2559C80.628 13.4692 81.59 10.8578 83.7891 10.8578C85.8507 10.8578 86.1256 13.1943 85.8507 15.3934ZM109.903 12.2322C109.903 12.2322 107.979 18.2796 107.841 18.8294C107.841 18.2796 106.329 7.4218 106.329 7.4218C103.031 7.4218 101.244 9.75829 100.419 12.2322C100.419 12.2322 98.0829 18.2796 97.9455 18.8294C97.9455 18.4171 97.5332 12.3697 97.5332 12.3697C97.3957 9.34597 94.5095 7.55924 92.3104 7.55924L95.0592 24.0521C98.4953 24.0521 100.419 21.7156 101.382 19.2417C101.382 19.2417 103.443 13.8815 103.581 13.6066C103.581 13.8815 105.092 24.0521 105.092 24.0521C108.528 24.0521 110.453 21.8531 111.415 19.5166L115.95 7.4218C112.514 7.4218 110.727 9.75829 109.903 12.2322ZM70.1825 0.137441L67.4336 22.6777L66.8839 25.4265C67.0213 25.4265 67.0213 25.4265 67.1588 25.4265C70.1825 25.4265 72.3815 22.6777 72.6564 19.3791L74.3057 6.45972C74.718 2.61137 72.2441 0.137441 70.1825 0.137441Z" fill="#1B1B1B"/>
</svg>
