<svg width="99" height="22" viewBox="0 0 99 22" fill="none" xmlns="http://www.w3.org/2000/svg">
<path fill-rule="evenodd" clip-rule="evenodd" d="M80.2073 6.59723C80.5815 7.24286 80.7039 7.97743 80.7443 8.80324L80.7975 9.90393V17.6007L80.8517 18.7025C80.9603 20.502 82.2874 21.8325 84.1007 21.9457L85.1968 22V9.90393L85.2511 8.80324C85.2961 7.98667 85.4174 7.23824 85.7974 6.58799C86.1846 5.92103 86.7404 5.36767 87.4091 4.98348C88.0778 4.59928 88.8358 4.39777 89.607 4.39918C90.3782 4.40058 91.1355 4.60485 91.8028 4.99148C92.47 5.37811 93.0239 5.93348 93.4086 6.60185C93.7829 7.24748 93.8995 7.99591 93.9446 8.80324L93.9988 9.90046V17.6007L94.0531 18.7025C94.1663 20.5112 95.483 21.8418 97.3021 21.9457L98.3981 22V8.80324C98.3981 6.46969 97.4714 4.23166 95.8216 2.58127C94.1719 0.930875 91.9342 0.00323181 89.6007 0.00231305C88.3517 0.000995875 87.1168 0.266231 85.9786 0.780298C84.8403 1.29437 83.8248 2.04543 83 2.98331C82.1748 2.0458 81.1593 1.29492 80.0211 0.780697C78.8829 0.266477 77.6482 0.000728203 76.3993 0.00115785C74.5721 0.00115785 72.8766 0.555547 71.4722 1.51302C70.6152 0.556701 68.6979 0.00115785 67.5972 0.00115785V22L68.6979 21.9457C70.539 21.8244 71.8695 20.5297 71.9411 18.7025L72 17.6007V9.90393L72.0543 8.80324C72.1005 7.97281 72.216 7.24286 72.5913 6.59261C72.9789 5.92606 73.5345 5.37284 74.2027 4.98817C74.8709 4.60351 75.6283 4.40086 76.3993 4.40046C77.1709 4.40063 77.9289 4.60368 78.5973 4.98925C79.2656 5.37482 79.8209 5.92935 80.2073 6.59723ZM4.89931 21.9469L6 22H22.4988L22.4446 20.9028C22.2956 19.0941 21.0147 17.7728 19.2002 17.655L18.0995 17.6007H8.20139L21.3982 4.39931L21.3439 3.30324C21.2584 1.47606 19.9232 0.155925 18.0995 0.0554414L16.9988 0.00577766L0.5 0.00115785L0.554284 1.10185C0.698656 2.89322 1.998 4.24223 3.79746 4.34618L4.89931 4.40046H14.7975L1.60069 17.6018L1.65498 18.7025C1.76354 20.5159 3.07213 21.8291 4.89931 21.9457V21.9469ZM63.2788 3.22123C64.3004 4.2426 65.1107 5.45521 65.6636 6.7898C66.2165 8.1244 66.5011 9.55484 66.5011 10.9994C66.5011 12.444 66.2165 13.8744 65.6636 15.209C65.1107 16.5436 64.3004 17.7562 63.2788 18.7776C61.2148 20.8399 58.4165 21.9983 55.4988 21.9983C52.5812 21.9983 49.7829 20.8399 47.7189 18.7776C43.4236 14.4823 43.4236 7.51659 47.7189 3.22123C48.7396 2.20021 49.9513 1.39022 51.285 0.837517C52.6187 0.284816 54.0482 0.000228005 55.4919 2.65159e-06C56.9379 -0.00100129 58.37 0.283085 59.7061 0.836013C61.0423 1.38894 62.2563 2.19986 63.2788 3.22239V3.22123ZM60.1661 6.33621C61.4033 7.57436 62.0983 9.25311 62.0983 11.0035C62.0983 12.7538 61.4033 14.4326 60.1661 15.6707C58.9279 16.908 57.2492 17.6029 55.4988 17.6029C53.7485 17.6029 52.0697 16.908 50.8316 15.6707C49.5944 14.4326 48.8994 12.7538 48.8994 11.0035C48.8994 9.25311 49.5944 7.57436 50.8316 6.33621C52.0697 5.09898 53.7485 4.404 55.4988 4.404C57.2492 4.404 58.9279 5.09898 60.1661 6.33621ZM32.4062 2.65159e-06C33.85 0.000379687 35.2795 0.28515 36.6133 0.83805C37.9469 1.39095 39.1587 2.20115 40.1792 3.22239C44.4757 7.51659 44.4757 14.4834 40.1792 18.7776C38.1153 20.8399 35.317 21.9983 32.3993 21.9983C29.4816 21.9983 26.6833 20.8399 24.6194 18.7776C20.324 14.4823 20.324 7.51659 24.6194 3.22123C25.64 2.20021 26.8518 1.39022 28.1855 0.837517C29.5192 0.284816 30.9487 0.000228005 32.3924 2.65159e-06H32.4062ZM37.0666 6.3339C38.3041 7.5721 38.9994 9.25109 38.9994 11.0017C38.9994 12.7524 38.3041 14.4314 37.0666 15.6696C35.8284 16.9068 34.1497 17.6018 32.3993 17.6018C30.6489 17.6018 28.9702 16.9068 27.732 15.6696C26.4948 14.4314 25.7998 12.7527 25.7998 11.0023C25.7998 9.25195 26.4948 7.57321 27.732 6.33505C28.9702 5.09783 30.6489 4.40284 32.3993 4.40284C34.1497 4.40284 35.8284 5.09783 37.0666 6.33505V6.3339Z" fill="#2D8CFF"/>
</svg>
