<svg width="40" height="40" viewBox="0 0 40 40" fill="none" xmlns="http://www.w3.org/2000/svg">
<rect width="40" height="40" rx="20" fill="#FFEA00"/>
<mask id="mask0_283_3479" style="mask-type:alpha" maskUnits="userSpaceOnUse" x="8" y="8" width="24" height="24">
<rect x="8" y="8" width="24" height="24" fill="#D9D9D9"/>
</mask>
<g mask="url(#mask0_283_3479)">
<path d="M12 28C11.45 28 10.9793 27.8043 10.588 27.413C10.196 27.021 10 26.55 10 26V14C10 13.45 10.196 12.9793 10.588 12.588C10.9793 12.196 11.45 12 12 12H28C28.55 12 29.021 12.196 29.413 12.588C29.8043 12.9793 30 13.45 30 14V26C30 26.55 29.8043 27.021 29.413 27.413C29.021 27.8043 28.55 28 28 28H12ZM12 26H28V16H12V26ZM15.5 25L14.1 23.6L16.675 21L14.075 18.4L15.5 17L19.5 21L15.5 25ZM20 25V23H26V25H20Z" fill="#071B85"/>
</g>
</svg>
