<svg width="48" height="48" viewBox="0 0 48 48" fill="none" xmlns="http://www.w3.org/2000/svg">
<rect width="48" height="48" rx="8" fill="#807E7E"/>
<path d="M28.6186 7.5H9.75C8.92157 7.5 8.25 8.17157 8.25 9V10.0909C8.25 10.9193 8.92157 11.5909 9.75 11.5909H21.3258C22.4326 11.5909 23.1582 12.7486 22.6758 13.7447L10.8933 38.0734C10.4109 39.0696 11.1365 40.2272 12.2433 40.2272H14.2441C14.8191 40.2272 15.3435 39.8985 15.5941 39.381L29.053 11.5909L29.9747 9.64104C30.4451 8.64596 29.7192 7.5 28.6186 7.5Z" fill="white"/>
<path d="M18.8853 40.2273H37.7539C38.5823 40.2273 39.2539 39.5557 39.2539 38.7273V37.6364C39.2539 36.808 38.5823 36.1364 37.7539 36.1364H26.1781C25.0713 36.1364 24.3457 34.9787 24.8281 33.9826L36.6106 9.65388C37.093 8.65774 36.3674 7.50006 35.2606 7.50006H33.2598C32.6848 7.50006 32.1604 7.82875 31.9098 8.34625L18.4509 36.1364L17.5292 38.0863C17.0588 39.0813 17.7847 40.2273 18.8853 40.2273Z" fill="white"/>
<path d="M19.4146 23.3669C19.4448 23.5448 19.4821 23.7203 19.5266 23.8936C19.5707 24.0664 19.6312 24.2368 19.7083 24.4048L19.4146 23.3669ZM19.4146 23.3669L17.0251 22.424M19.4146 23.3669L20.652 18.5113M18.1011 18.1895L20.652 18.5113M18.1011 18.1895L17.0251 22.424M18.1011 18.1895L18.0698 18.4376L18.289 18.4652M18.1011 18.1895L18.3434 18.2511L18.289 18.4652M20.652 18.5113C20.7074 18.4356 20.7653 18.3668 20.8258 18.3049L21.2012 17.9205C21.2613 17.859 21.3285 17.7997 21.4029 17.7425M20.652 18.5113L21.4029 17.7425M17.0251 22.424L17.2675 22.4856L17.3217 22.2723M17.0251 22.424L17.1169 22.1915L17.3217 22.2723M17.3217 22.2723L19.5063 23.1343L19.6374 23.1861L19.661 23.325C19.6901 23.4961 19.726 23.6649 19.7688 23.8314L19.7688 23.8318C19.8091 23.9896 19.8645 24.1458 19.9355 24.3006L19.9979 24.4367L19.9074 24.5559L18.4888 26.4249M17.3217 22.2723L18.289 18.4652M18.4888 26.4249L30.8001 20.7376C30.7595 20.5795 30.7039 20.4231 30.6329 20.2683L30.5705 20.1322L30.661 20.013L32.0797 18.144M18.4888 26.4249L21.3051 29.1756L23.1401 27.7133L23.2536 27.6229L23.3883 27.6766C23.5376 27.736 23.6965 27.7869 23.8652 27.8292C24.036 27.872 24.2064 27.9058 24.3765 27.9306L24.5165 27.951L24.5711 28.0815L25.4705 30.2304L29.2531 29.1738L28.9041 26.8496L28.8787 26.6803L29.0273 26.5954C29.0933 26.5577 29.1465 26.5166 29.1889 26.4732L29.5644 26.0888C29.6155 26.0365 29.6656 25.977 29.7147 25.91L29.8016 25.7912L29.9477 25.8096L32.2795 26.1037L33.2468 22.2966L31.0621 21.4346L30.931 21.3828L30.9074 21.2439C30.8783 21.0726 30.8425 20.9039 30.8002 20.7377L18.4888 26.4249ZM18.289 18.4652L20.6207 18.7593L20.7668 18.7777L20.8538 18.6589C20.9028 18.5919 20.9531 18.5323 21.0046 18.4796L21.3801 18.0952C21.4312 18.0429 21.4894 17.9913 21.5552 17.9407L21.672 17.851L21.6501 17.7054L21.3011 15.3812M21.3011 15.3812L25.0843 14.3244M21.3011 15.3812L21.0883 15.4406L21.0211 15.1998M21.3011 15.3812L21.2683 15.1627L21.0211 15.1998M25.0843 14.3244L25.9977 16.4881L26.0525 16.618L26.1919 16.6383C26.362 16.6631 26.5324 16.6969 26.7032 16.7397C26.872 16.782 27.0308 16.8329 27.1801 16.8923L27.3149 16.946L27.4283 16.8556L29.2634 15.3933M25.0843 14.3244L24.9987 14.1216L25.2291 14.0244M25.0843 14.3244L25.2963 14.2652L25.2291 14.0244M29.2634 15.3933L32.0797 18.144M29.2634 15.3933L29.1055 15.2391L29.2802 15.0602M29.2634 15.3933L29.436 15.2558L29.2802 15.0602M32.0797 18.144L32.2131 17.9682L32.4122 18.1193M32.0797 18.144L32.2375 18.2982L32.4122 18.1193M32.4122 18.1193L29.2802 15.0602M32.4122 18.1193L30.8602 20.1641L29.2802 15.0602M29.2802 15.0602L27.2725 16.6601M29.2802 15.0602L27.2725 16.6601M21.4029 17.7425L21.0211 15.1998M21.4029 17.7425L21.0211 15.1998M27.2725 16.6601C27.1123 16.5963 26.9428 16.542 26.764 16.4972C26.5852 16.4524 26.4065 16.417 26.228 16.3909L25.2291 14.0244M27.2725 16.6601L21.0211 15.1998M25.2291 14.0244L21.0211 15.1998M25.268 19.269L25.2679 19.2691C24.4374 19.2841 23.724 19.5937 23.1407 20.1909C22.5574 20.7881 22.2648 21.5086 22.2693 22.3392L22.2693 22.3393C22.2742 23.1727 22.5848 23.8919 23.1913 24.4842C23.7892 25.0682 24.5129 25.3581 25.3485 25.3483C26.184 25.3384 26.9007 25.0315 27.4847 24.4336C28.0686 23.8357 28.3585 23.112 28.3487 22.2765C28.3388 21.4409 28.032 20.7242 27.4341 20.1403C26.8275 19.5479 26.1012 19.2543 25.268 19.269Z" fill="white" stroke="#807E7E" stroke-width="0.5"/>
<path d="M30.7017 33.5482L30.7215 33.457L30.6505 33.3965C30.5698 33.3276 30.4975 33.2539 30.4333 33.1753L30.4332 33.1751C30.3654 33.0922 30.3008 33.0062 30.2394 32.9172L30.1896 32.8448L30.1019 32.85L28.641 32.9361L28.1886 30.5307L29.5836 30.0849L29.671 30.057L29.6889 29.967C29.6991 29.9163 29.7119 29.8694 29.7271 29.8261L29.8384 29.5103C29.8536 29.4673 29.873 29.4229 29.8969 29.377L29.9393 29.2957L29.8888 29.2191L29.0816 27.9972L30.9424 26.4071L32.0264 27.3902L32.0914 27.4492L32.1756 27.4241C32.2782 27.3935 32.3834 27.3679 32.4912 27.3472C32.5976 27.3268 32.7008 27.314 32.8007 27.3084L32.891 27.3033L32.9314 27.2224L33.5847 25.9144L35.8983 26.7299L35.587 28.1585L35.5672 28.2497L35.6381 28.3102C35.7189 28.3791 35.7915 28.4529 35.856 28.5317C35.9235 28.6145 35.9879 28.7004 36.0493 28.7895L36.0991 28.8619L36.1868 28.8567L37.6477 28.7706L38.1001 31.176L36.7051 31.6218L36.6177 31.6497L36.5998 31.7397C36.5896 31.7904 36.5769 31.8372 36.5617 31.8801L36.4504 32.1959C36.4378 32.2316 36.4186 32.2688 36.3912 32.3074L36.3294 32.3944L36.3882 32.4834L37.1954 33.7054L35.335 35.2952L34.2627 34.3168L34.1976 34.2574L34.1131 34.2826C34.0105 34.3132 33.9053 34.3388 33.7975 34.3595C33.6911 34.3798 33.5879 34.3927 33.488 34.3983L33.3977 34.4034L33.3573 34.4843L32.704 35.7923L30.3904 34.9768L30.7017 33.5482ZM32.3438 29.1534L32.3438 29.1534C31.8784 29.3799 31.5564 29.7421 31.3835 30.2327C31.2106 30.7232 31.2343 31.2073 31.4548 31.6755L31.4548 31.6756C31.6763 32.1453 32.0406 32.4702 32.5388 32.6458C33.03 32.819 33.5151 32.7929 33.9847 32.568C34.4543 32.3432 34.7789 31.9817 34.952 31.4905C35.1251 30.9993 35.099 30.5142 34.8742 30.0446C34.6493 29.575 34.2878 29.2505 33.7967 29.0773C33.2984 28.9017 32.8109 28.9264 32.3438 29.1534Z" fill="#807E7E" stroke="white" stroke-width="0.311563"/>
</svg>
